<?xml version="1.0" encoding="utf-8" standalone="no"?>
<!DOCTYPE svg PUBLIC "-//W3C//DTD SVG 1.1//EN"
  "http://www.w3.org/Graphics/SVG/1.1/DTD/svg11.dtd">
<svg xmlns:xlink="http://www.w3.org/1999/xlink" width="419.294875pt" height="197.22325pt" viewBox="0 0 419.294875 197.22325" xmlns="http://www.w3.org/2000/svg" version="1.1">
 <metadata>
  <rdf:RDF xmlns:dc="http://purl.org/dc/elements/1.1/" xmlns:cc="http://creativecommons.org/ns#" xmlns:rdf="http://www.w3.org/1999/02/22-rdf-syntax-ns#">
   <cc:Work>
    <dc:type rdf:resource="http://purl.org/dc/dcmitype/StillImage"/>
    <dc:date>2023-06-27T19:07:30.842664</dc:date>
    <dc:format>image/svg+xml</dc:format>
    <dc:creator>
     <cc:Agent>
      <dc:title>Matplotlib v3.7.1, https://matplotlib.org/</dc:title>
     </cc:Agent>
    </dc:creator>
   </cc:Work>
  </rdf:RDF>
 </metadata>
 <defs>
  <style type="text/css">*{stroke-linejoin: round; stroke-linecap: butt}</style>
 </defs>
 <g id="figure_1">
  <g id="patch_1">
   <path d="M 0 197.22325 
L 419.294875 197.22325 
L 419.294875 0 
L 0 0 
z
" style="fill: #f8f5f0"/>
  </g>
  <g id="axes_1">
   <g id="patch_2">
    <path d="M 160.994875 173.52 
L 412.094875 173.52 
L 412.094875 7.2 
L 160.994875 7.2 
z
" style="fill: #ffffff"/>
   </g>
   <g id="matplotlib.axis_1">
    <g id="xtick_1">
     <g id="line2d_1">
      <path d="M 160.994875 173.52 
L 160.994875 7.2 
" clip-path="url(#paf5ecf46ad)" style="fill: none; stroke: #cccccc; stroke-width: 0.8; stroke-linecap: round"/>
     </g>
     <g id="text_1">
      <!-- 0 -->
      <g style="fill: #262626" transform="translate(158.548063 188.19725) scale(0.088 -0.088)">
       <defs>
        <path id="Arimo-30" d="M 3309 2203 
Q 3309 1100 2920 518 
Q 2531 -63 1772 -63 
Q 1013 -63 631 515 
Q 250 1094 250 2203 
Q 250 3338 620 3903 
Q 991 4469 1791 4469 
Q 2569 4469 2939 3897 
Q 3309 3325 3309 2203 
z
M 2738 2203 
Q 2738 3156 2517 3584 
Q 2297 4013 1791 4013 
Q 1272 4013 1045 3591 
Q 819 3169 819 2203 
Q 819 1266 1048 831 
Q 1278 397 1778 397 
Q 2275 397 2506 840 
Q 2738 1284 2738 2203 
z
" transform="scale(0.015625)"/>
       </defs>
       <use xlink:href="#Arimo-30"/>
      </g>
     </g>
    </g>
    <g id="xtick_2">
     <g id="line2d_2">
      <path d="M 193.085972 173.52 
L 193.085972 7.2 
" clip-path="url(#paf5ecf46ad)" style="fill: none; stroke: #cccccc; stroke-width: 0.8; stroke-linecap: round"/>
     </g>
     <g id="text_2">
      <!-- 5000 -->
      <g style="fill: #262626" transform="translate(183.298722 188.19725) scale(0.088 -0.088)">
       <defs>
        <path id="Arimo-35" d="M 3291 1434 
Q 3291 738 2877 337 
Q 2463 -63 1728 -63 
Q 1113 -63 734 206 
Q 356 475 256 984 
L 825 1050 
Q 1003 397 1741 397 
Q 2194 397 2450 670 
Q 2706 944 2706 1422 
Q 2706 1838 2448 2094 
Q 2191 2350 1753 2350 
Q 1525 2350 1328 2278 
Q 1131 2206 934 2034 
L 384 2034 
L 531 4403 
L 3034 4403 
L 3034 3925 
L 1044 3925 
L 959 2528 
Q 1325 2809 1869 2809 
Q 2519 2809 2905 2428 
Q 3291 2047 3291 1434 
z
" transform="scale(0.015625)"/>
       </defs>
       <use xlink:href="#Arimo-35"/>
       <use xlink:href="#Arimo-30" x="55.615234"/>
       <use xlink:href="#Arimo-30" x="111.230469"/>
       <use xlink:href="#Arimo-30" x="166.845703"/>
      </g>
     </g>
    </g>
    <g id="xtick_3">
     <g id="line2d_3">
      <path d="M 225.17707 173.52 
L 225.17707 7.2 
" clip-path="url(#paf5ecf46ad)" style="fill: none; stroke: #cccccc; stroke-width: 0.8; stroke-linecap: round"/>
     </g>
     <g id="text_3">
      <!-- 10000 -->
      <g style="fill: #262626" transform="translate(212.943007 188.19725) scale(0.088 -0.088)">
       <defs>
        <path id="Arimo-31" d="M 488 0 
L 488 478 
L 1609 478 
L 1609 3866 
L 616 3156 
L 616 3688 
L 1656 4403 
L 2175 4403 
L 2175 478 
L 3247 478 
L 3247 0 
L 488 0 
z
" transform="scale(0.015625)"/>
       </defs>
       <use xlink:href="#Arimo-31"/>
       <use xlink:href="#Arimo-30" x="55.615234"/>
       <use xlink:href="#Arimo-30" x="111.230469"/>
       <use xlink:href="#Arimo-30" x="166.845703"/>
       <use xlink:href="#Arimo-30" x="222.460938"/>
      </g>
     </g>
    </g>
    <g id="xtick_4">
     <g id="line2d_4">
      <path d="M 257.268167 173.52 
L 257.268167 7.2 
" clip-path="url(#paf5ecf46ad)" style="fill: none; stroke: #cccccc; stroke-width: 0.8; stroke-linecap: round"/>
     </g>
     <g id="text_4">
      <!-- 15000 -->
      <g style="fill: #262626" transform="translate(245.034104 188.19725) scale(0.088 -0.088)">
       <use xlink:href="#Arimo-31"/>
       <use xlink:href="#Arimo-35" x="55.615234"/>
       <use xlink:href="#Arimo-30" x="111.230469"/>
       <use xlink:href="#Arimo-30" x="166.845703"/>
       <use xlink:href="#Arimo-30" x="222.460938"/>
      </g>
     </g>
    </g>
    <g id="xtick_5">
     <g id="line2d_5">
      <path d="M 289.359264 173.52 
L 289.359264 7.2 
" clip-path="url(#paf5ecf46ad)" style="fill: none; stroke: #cccccc; stroke-width: 0.8; stroke-linecap: round"/>
     </g>
     <g id="text_5">
      <!-- 20000 -->
      <g style="fill: #262626" transform="translate(277.125202 188.19725) scale(0.088 -0.088)">
       <defs>
        <path id="Arimo-32" d="M 322 0 
L 322 397 
Q 481 763 711 1042 
Q 941 1322 1194 1548 
Q 1447 1775 1695 1969 
Q 1944 2163 2144 2356 
Q 2344 2550 2467 2762 
Q 2591 2975 2591 3244 
Q 2591 3606 2378 3806 
Q 2166 4006 1788 4006 
Q 1428 4006 1195 3811 
Q 963 3616 922 3263 
L 347 3316 
Q 409 3844 795 4156 
Q 1181 4469 1788 4469 
Q 2453 4469 2811 4155 
Q 3169 3841 3169 3263 
Q 3169 3006 3051 2753 
Q 2934 2500 2703 2247 
Q 2472 1994 1819 1463 
Q 1459 1169 1246 933 
Q 1034 697 941 478 
L 3238 478 
L 3238 0 
L 322 0 
z
" transform="scale(0.015625)"/>
       </defs>
       <use xlink:href="#Arimo-32"/>
       <use xlink:href="#Arimo-30" x="55.615234"/>
       <use xlink:href="#Arimo-30" x="111.230469"/>
       <use xlink:href="#Arimo-30" x="166.845703"/>
       <use xlink:href="#Arimo-30" x="222.460938"/>
      </g>
     </g>
    </g>
    <g id="xtick_6">
     <g id="line2d_6">
      <path d="M 321.450362 173.52 
L 321.450362 7.2 
" clip-path="url(#paf5ecf46ad)" style="fill: none; stroke: #cccccc; stroke-width: 0.8; stroke-linecap: round"/>
     </g>
     <g id="text_6">
      <!-- 25000 -->
      <g style="fill: #262626" transform="translate(309.216299 188.19725) scale(0.088 -0.088)">
       <use xlink:href="#Arimo-32"/>
       <use xlink:href="#Arimo-35" x="55.615234"/>
       <use xlink:href="#Arimo-30" x="111.230469"/>
       <use xlink:href="#Arimo-30" x="166.845703"/>
       <use xlink:href="#Arimo-30" x="222.460938"/>
      </g>
     </g>
    </g>
    <g id="xtick_7">
     <g id="line2d_7">
      <path d="M 353.541459 173.52 
L 353.541459 7.2 
" clip-path="url(#paf5ecf46ad)" style="fill: none; stroke: #cccccc; stroke-width: 0.8; stroke-linecap: round"/>
     </g>
     <g id="text_7">
      <!-- 30000 -->
      <g style="fill: #262626" transform="translate(341.307396 188.19725) scale(0.088 -0.088)">
       <defs>
        <path id="Arimo-33" d="M 3278 1216 
Q 3278 606 2890 271 
Q 2503 -63 1784 -63 
Q 1116 -63 717 239 
Q 319 541 244 1131 
L 825 1184 
Q 938 403 1784 403 
Q 2209 403 2451 612 
Q 2694 822 2694 1234 
Q 2694 1594 2417 1795 
Q 2141 1997 1619 1997 
L 1300 1997 
L 1300 2484 
L 1606 2484 
Q 2069 2484 2323 2686 
Q 2578 2888 2578 3244 
Q 2578 3597 2370 3801 
Q 2163 4006 1753 4006 
Q 1381 4006 1151 3815 
Q 922 3625 884 3278 
L 319 3322 
Q 381 3863 767 4166 
Q 1153 4469 1759 4469 
Q 2422 4469 2789 4161 
Q 3156 3853 3156 3303 
Q 3156 2881 2920 2617 
Q 2684 2353 2234 2259 
L 2234 2247 
Q 2728 2194 3003 1916 
Q 3278 1638 3278 1216 
z
" transform="scale(0.015625)"/>
       </defs>
       <use xlink:href="#Arimo-33"/>
       <use xlink:href="#Arimo-30" x="55.615234"/>
       <use xlink:href="#Arimo-30" x="111.230469"/>
       <use xlink:href="#Arimo-30" x="166.845703"/>
       <use xlink:href="#Arimo-30" x="222.460938"/>
      </g>
     </g>
    </g>
    <g id="xtick_8">
     <g id="line2d_8">
      <path d="M 385.632556 173.52 
L 385.632556 7.2 
" clip-path="url(#paf5ecf46ad)" style="fill: none; stroke: #cccccc; stroke-width: 0.8; stroke-linecap: round"/>
     </g>
     <g id="text_8">
      <!-- 35000 -->
      <g style="fill: #262626" transform="translate(373.398494 188.19725) scale(0.088 -0.088)">
       <use xlink:href="#Arimo-33"/>
       <use xlink:href="#Arimo-35" x="55.615234"/>
       <use xlink:href="#Arimo-30" x="111.230469"/>
       <use xlink:href="#Arimo-30" x="166.845703"/>
       <use xlink:href="#Arimo-30" x="222.460938"/>
      </g>
     </g>
    </g>
   </g>
   <g id="matplotlib.axis_2">
    <g id="ytick_1">
     <g id="text_9">
      <!-- Alarms -->
      <g style="fill: #262626" transform="translate(125.315875 18.704625) scale(0.088 -0.088)">
       <defs>
        <path id="Arimo-41" d="M 3647 0 
L 3144 1288 
L 1138 1288 
L 631 0 
L 13 0 
L 1809 4403 
L 2488 4403 
L 4256 0 
L 3647 0 
z
M 2141 3953 
L 2113 3866 
Q 2034 3606 1881 3200 
L 1319 1753 
L 2966 1753 
L 2400 3206 
Q 2313 3422 2225 3694 
L 2141 3953 
z
" transform="scale(0.015625)"/>
        <path id="Arimo-6c" d="M 431 0 
L 431 4638 
L 994 4638 
L 994 0 
L 431 0 
z
" transform="scale(0.015625)"/>
        <path id="Arimo-61" d="M 1294 -63 
Q 784 -63 528 206 
Q 272 475 272 944 
Q 272 1469 617 1750 
Q 963 2031 1731 2050 
L 2491 2063 
L 2491 2247 
Q 2491 2659 2316 2837 
Q 2141 3016 1766 3016 
Q 1388 3016 1216 2887 
Q 1044 2759 1009 2478 
L 422 2531 
Q 566 3444 1778 3444 
Q 2416 3444 2737 3151 
Q 3059 2859 3059 2306 
L 3059 850 
Q 3059 600 3125 473 
Q 3191 347 3375 347 
Q 3456 347 3559 369 
L 3559 19 
Q 3347 -31 3125 -31 
Q 2813 -31 2670 133 
Q 2528 297 2509 647 
L 2491 647 
Q 2275 259 1989 98 
Q 1703 -63 1294 -63 
z
M 1422 359 
Q 1731 359 1972 500 
Q 2213 641 2352 886 
Q 2491 1131 2491 1391 
L 2491 1669 
L 1875 1656 
Q 1478 1650 1273 1575 
Q 1069 1500 959 1344 
Q 850 1188 850 934 
Q 850 659 998 509 
Q 1147 359 1422 359 
z
" transform="scale(0.015625)"/>
        <path id="Arimo-72" d="M 444 0 
L 444 2594 
Q 444 2950 425 3381 
L 956 3381 
Q 981 2806 981 2691 
L 994 2691 
Q 1128 3125 1303 3284 
Q 1478 3444 1797 3444 
Q 1909 3444 2025 3413 
L 2025 2897 
Q 1913 2928 1725 2928 
Q 1375 2928 1190 2626 
Q 1006 2325 1006 1763 
L 1006 0 
L 444 0 
z
" transform="scale(0.015625)"/>
        <path id="Arimo-6d" d="M 2400 0 
L 2400 2144 
Q 2400 2634 2265 2821 
Q 2131 3009 1781 3009 
Q 1422 3009 1212 2734 
Q 1003 2459 1003 1959 
L 1003 0 
L 444 0 
L 444 2659 
Q 444 3250 425 3381 
L 956 3381 
Q 959 3366 962 3297 
Q 966 3228 970 3139 
Q 975 3050 981 2803 
L 991 2803 
Q 1172 3163 1406 3303 
Q 1641 3444 1978 3444 
Q 2363 3444 2586 3291 
Q 2809 3138 2897 2803 
L 2906 2803 
Q 3081 3144 3329 3294 
Q 3578 3444 3931 3444 
Q 4444 3444 4676 3166 
Q 4909 2888 4909 2253 
L 4909 0 
L 4353 0 
L 4353 2144 
Q 4353 2634 4218 2821 
Q 4084 3009 3734 3009 
Q 3366 3009 3161 2736 
Q 2956 2463 2956 1959 
L 2956 0 
L 2400 0 
z
" transform="scale(0.015625)"/>
        <path id="Arimo-73" d="M 2969 934 
Q 2969 456 2608 196 
Q 2247 -63 1597 -63 
Q 966 -63 623 145 
Q 281 353 178 794 
L 675 891 
Q 747 619 972 492 
Q 1197 366 1597 366 
Q 2025 366 2223 497 
Q 2422 628 2422 891 
Q 2422 1091 2284 1216 
Q 2147 1341 1841 1422 
L 1438 1528 
Q 953 1653 748 1773 
Q 544 1894 428 2066 
Q 313 2238 313 2488 
Q 313 2950 642 3192 
Q 972 3434 1603 3434 
Q 2163 3434 2492 3237 
Q 2822 3041 2909 2606 
L 2403 2544 
Q 2356 2769 2151 2889 
Q 1947 3009 1603 3009 
Q 1222 3009 1040 2893 
Q 859 2778 859 2544 
Q 859 2400 934 2306 
Q 1009 2213 1156 2147 
Q 1303 2081 1775 1966 
Q 2222 1853 2419 1758 
Q 2616 1663 2730 1547 
Q 2844 1431 2906 1279 
Q 2969 1128 2969 934 
z
" transform="scale(0.015625)"/>
       </defs>
       <use xlink:href="#Arimo-41"/>
       <use xlink:href="#Arimo-6c" x="66.699219"/>
       <use xlink:href="#Arimo-61" x="88.916016"/>
       <use xlink:href="#Arimo-72" x="144.53125"/>
       <use xlink:href="#Arimo-6d" x="177.832031"/>
       <use xlink:href="#Arimo-73" x="261.132812"/>
      </g>
     </g>
    </g>
    <g id="ytick_2">
     <g id="text_10">
      <!-- Other -->
      <g style="fill: #262626" transform="translate(130.688 35.336625) scale(0.088 -0.088)">
       <defs>
        <path id="Arimo-4f" d="M 4672 2222 
Q 4672 1531 4408 1012 
Q 4144 494 3650 215 
Q 3156 -63 2484 -63 
Q 1806 -63 1314 212 
Q 822 488 562 1008 
Q 303 1528 303 2222 
Q 303 3278 881 3873 
Q 1459 4469 2491 4469 
Q 3163 4469 3656 4201 
Q 4150 3934 4411 3425 
Q 4672 2916 4672 2222 
z
M 4063 2222 
Q 4063 3044 3652 3512 
Q 3241 3981 2491 3981 
Q 1734 3981 1321 3518 
Q 909 3056 909 2222 
Q 909 1394 1326 908 
Q 1744 422 2484 422 
Q 3247 422 3655 892 
Q 4063 1363 4063 2222 
z
" transform="scale(0.015625)"/>
        <path id="Arimo-74" d="M 1731 25 
Q 1453 -50 1163 -50 
Q 488 -50 488 716 
L 488 2972 
L 97 2972 
L 97 3381 
L 509 3381 
L 675 4138 
L 1050 4138 
L 1050 3381 
L 1675 3381 
L 1675 2972 
L 1050 2972 
L 1050 838 
Q 1050 594 1129 495 
Q 1209 397 1406 397 
Q 1519 397 1731 441 
L 1731 25 
z
" transform="scale(0.015625)"/>
        <path id="Arimo-68" d="M 991 2803 
Q 1172 3134 1426 3289 
Q 1681 3444 2072 3444 
Q 2622 3444 2883 3170 
Q 3144 2897 3144 2253 
L 3144 0 
L 2578 0 
L 2578 2144 
Q 2578 2500 2512 2673 
Q 2447 2847 2297 2928 
Q 2147 3009 1881 3009 
Q 1484 3009 1245 2734 
Q 1006 2459 1006 1994 
L 1006 0 
L 444 0 
L 444 4638 
L 1006 4638 
L 1006 3431 
Q 1006 3241 995 3037 
Q 984 2834 981 2803 
L 991 2803 
z
" transform="scale(0.015625)"/>
        <path id="Arimo-65" d="M 863 1572 
Q 863 991 1103 675 
Q 1344 359 1806 359 
Q 2172 359 2392 506 
Q 2613 653 2691 878 
L 3184 738 
Q 2881 -63 1806 -63 
Q 1056 -63 664 384 
Q 272 831 272 1713 
Q 272 2550 664 2997 
Q 1056 3444 1784 3444 
Q 3275 3444 3275 1647 
L 3275 1572 
L 863 1572 
z
M 2694 2003 
Q 2647 2538 2422 2783 
Q 2197 3028 1775 3028 
Q 1366 3028 1127 2754 
Q 888 2481 869 2003 
L 2694 2003 
z
" transform="scale(0.015625)"/>
       </defs>
       <use xlink:href="#Arimo-4f"/>
       <use xlink:href="#Arimo-74" x="77.783203"/>
       <use xlink:href="#Arimo-68" x="105.566406"/>
       <use xlink:href="#Arimo-65" x="161.181641"/>
       <use xlink:href="#Arimo-72" x="216.796875"/>
      </g>
     </g>
    </g>
    <g id="ytick_3">
     <g id="text_11">
      <!-- Outside Fire -->
      <g style="fill: #262626" transform="translate(104.770625 51.968625) scale(0.088 -0.088)">
       <defs>
        <path id="Arimo-75" d="M 981 3381 
L 981 1238 
Q 981 903 1047 718 
Q 1113 534 1256 453 
Q 1400 372 1678 372 
Q 2084 372 2318 650 
Q 2553 928 2553 1422 
L 2553 3381 
L 3116 3381 
L 3116 722 
Q 3116 131 3134 0 
L 2603 0 
Q 2600 16 2597 84 
Q 2594 153 2589 242 
Q 2584 331 2578 578 
L 2569 578 
Q 2375 228 2120 82 
Q 1866 -63 1488 -63 
Q 931 -63 673 214 
Q 416 491 416 1128 
L 416 3381 
L 981 3381 
z
" transform="scale(0.015625)"/>
        <path id="Arimo-69" d="M 428 0 
L 428 3381 
L 991 3381 
L 991 0 
L 428 0 
z
M 428 4100 
L 428 4638 
L 991 4638 
L 991 4100 
L 428 4100 
z
" transform="scale(0.015625)"/>
        <path id="Arimo-64" d="M 2566 544 
Q 2409 219 2151 78 
Q 1894 -63 1513 -63 
Q 872 -63 570 368 
Q 269 800 269 1675 
Q 269 3444 1513 3444 
Q 1897 3444 2153 3303 
Q 2409 3163 2566 2856 
L 2572 2856 
L 2566 3234 
L 2566 4638 
L 3128 4638 
L 3128 697 
Q 3128 169 3147 0 
L 2609 0 
Q 2600 50 2589 231 
Q 2578 413 2578 544 
L 2566 544 
z
M 859 1694 
Q 859 984 1046 678 
Q 1234 372 1656 372 
Q 2134 372 2350 703 
Q 2566 1034 2566 1731 
Q 2566 2403 2350 2715 
Q 2134 3028 1663 3028 
Q 1238 3028 1048 2714 
Q 859 2400 859 1694 
z
" transform="scale(0.015625)"/>
        <path id="Arimo-20" transform="scale(0.015625)"/>
        <path id="Arimo-46" d="M 1122 3916 
L 1122 2278 
L 3578 2278 
L 3578 1784 
L 1122 1784 
L 1122 0 
L 525 0 
L 525 4403 
L 3653 4403 
L 3653 3916 
L 1122 3916 
z
" transform="scale(0.015625)"/>
       </defs>
       <use xlink:href="#Arimo-4f"/>
       <use xlink:href="#Arimo-75" x="77.783203"/>
       <use xlink:href="#Arimo-74" x="133.398438"/>
       <use xlink:href="#Arimo-73" x="161.181641"/>
       <use xlink:href="#Arimo-69" x="211.181641"/>
       <use xlink:href="#Arimo-64" x="233.398438"/>
       <use xlink:href="#Arimo-65" x="289.013672"/>
       <use xlink:href="#Arimo-20" x="344.628906"/>
       <use xlink:href="#Arimo-46" x="372.412109"/>
       <use xlink:href="#Arimo-69" x="433.496094"/>
       <use xlink:href="#Arimo-72" x="455.712891"/>
       <use xlink:href="#Arimo-65" x="489.013672"/>
      </g>
     </g>
    </g>
    <g id="ytick_4">
     <g id="text_12">
      <!-- Traffic Collision -->
      <g style="fill: #262626" transform="translate(92.549625 68.600625) scale(0.088 -0.088)">
       <defs>
        <path id="Arimo-54" d="M 2250 3916 
L 2250 0 
L 1656 0 
L 1656 3916 
L 144 3916 
L 144 4403 
L 3763 4403 
L 3763 3916 
L 2250 3916 
z
" transform="scale(0.015625)"/>
        <path id="Arimo-66" d="M 1128 2972 
L 1128 0 
L 566 0 
L 566 2972 
L 91 2972 
L 91 3381 
L 566 3381 
L 566 3763 
Q 566 4225 769 4428 
Q 972 4631 1391 4631 
Q 1625 4631 1788 4594 
L 1788 4166 
Q 1647 4191 1538 4191 
Q 1322 4191 1225 4081 
Q 1128 3972 1128 3684 
L 1128 3381 
L 1788 3381 
L 1788 2972 
L 1128 2972 
z
" transform="scale(0.015625)"/>
        <path id="Arimo-63" d="M 859 1706 
Q 859 1031 1071 706 
Q 1284 381 1713 381 
Q 2013 381 2214 543 
Q 2416 706 2463 1044 
L 3031 1006 
Q 2966 519 2616 228 
Q 2266 -63 1728 -63 
Q 1019 -63 645 385 
Q 272 834 272 1694 
Q 272 2547 647 2995 
Q 1022 3444 1722 3444 
Q 2241 3444 2583 3175 
Q 2925 2906 3013 2434 
L 2434 2391 
Q 2391 2672 2212 2837 
Q 2034 3003 1706 3003 
Q 1259 3003 1059 2706 
Q 859 2409 859 1706 
z
" transform="scale(0.015625)"/>
        <path id="Arimo-43" d="M 2475 3981 
Q 1744 3981 1337 3511 
Q 931 3041 931 2222 
Q 931 1413 1354 920 
Q 1778 428 2500 428 
Q 3425 428 3891 1344 
L 4378 1100 
Q 4106 531 3614 234 
Q 3122 -63 2472 -63 
Q 1806 -63 1320 214 
Q 834 491 579 1005 
Q 325 1519 325 2222 
Q 325 3275 894 3872 
Q 1463 4469 2469 4469 
Q 3172 4469 3644 4194 
Q 4116 3919 4338 3378 
L 3772 3191 
Q 3619 3575 3280 3778 
Q 2941 3981 2475 3981 
z
" transform="scale(0.015625)"/>
        <path id="Arimo-6f" d="M 3291 1694 
Q 3291 806 2900 371 
Q 2509 -63 1766 -63 
Q 1025 -63 647 389 
Q 269 841 269 1694 
Q 269 3444 1784 3444 
Q 2559 3444 2925 3017 
Q 3291 2591 3291 1694 
z
M 2700 1694 
Q 2700 2394 2492 2711 
Q 2284 3028 1794 3028 
Q 1300 3028 1079 2704 
Q 859 2381 859 1694 
Q 859 1025 1076 689 
Q 1294 353 1759 353 
Q 2266 353 2483 678 
Q 2700 1003 2700 1694 
z
" transform="scale(0.015625)"/>
        <path id="Arimo-6e" d="M 2578 0 
L 2578 2144 
Q 2578 2478 2512 2662 
Q 2447 2847 2303 2928 
Q 2159 3009 1881 3009 
Q 1475 3009 1240 2731 
Q 1006 2453 1006 1959 
L 1006 0 
L 444 0 
L 444 2659 
Q 444 3250 425 3381 
L 956 3381 
Q 959 3366 962 3297 
Q 966 3228 970 3139 
Q 975 3050 981 2803 
L 991 2803 
Q 1184 3153 1439 3298 
Q 1694 3444 2072 3444 
Q 2628 3444 2886 3167 
Q 3144 2891 3144 2253 
L 3144 0 
L 2578 0 
z
" transform="scale(0.015625)"/>
       </defs>
       <use xlink:href="#Arimo-54"/>
       <use xlink:href="#Arimo-72" x="61.083984"/>
       <use xlink:href="#Arimo-61" x="94.384766"/>
       <use xlink:href="#Arimo-66" x="150"/>
       <use xlink:href="#Arimo-66" x="177.783203"/>
       <use xlink:href="#Arimo-69" x="205.566406"/>
       <use xlink:href="#Arimo-63" x="227.783203"/>
       <use xlink:href="#Arimo-20" x="277.783203"/>
       <use xlink:href="#Arimo-43" x="305.566406"/>
       <use xlink:href="#Arimo-6f" x="377.783203"/>
       <use xlink:href="#Arimo-6c" x="433.398438"/>
       <use xlink:href="#Arimo-6c" x="455.615234"/>
       <use xlink:href="#Arimo-69" x="477.832031"/>
       <use xlink:href="#Arimo-73" x="500.048828"/>
       <use xlink:href="#Arimo-69" x="550.048828"/>
       <use xlink:href="#Arimo-6f" x="572.265625"/>
       <use xlink:href="#Arimo-6e" x="627.880859"/>
      </g>
     </g>
    </g>
    <g id="ytick_5">
     <g id="text_13">
      <!-- Citizen Assist / Service Call -->
      <g style="fill: #262626" transform="translate(45.601625 85.232625) scale(0.088 -0.088)">
       <defs>
        <path id="Arimo-7a" d="M 259 0 
L 259 428 
L 2150 2947 
L 366 2947 
L 366 3381 
L 2816 3381 
L 2816 2953 
L 922 434 
L 2881 434 
L 2881 0 
L 259 0 
z
" transform="scale(0.015625)"/>
        <path id="Arimo-2f" d="M 0 -63 
L 1284 4638 
L 1778 4638 
L 506 -63 
L 0 -63 
z
" transform="scale(0.015625)"/>
        <path id="Arimo-53" d="M 3975 1216 
Q 3975 606 3498 271 
Q 3022 -63 2156 -63 
Q 547 -63 291 1056 
L 869 1172 
Q 969 775 1294 589 
Q 1619 403 2178 403 
Q 2756 403 3070 601 
Q 3384 800 3384 1184 
Q 3384 1400 3286 1534 
Q 3188 1669 3009 1756 
Q 2831 1844 2584 1903 
Q 2338 1963 2038 2031 
Q 1516 2147 1245 2262 
Q 975 2378 819 2520 
Q 663 2663 580 2853 
Q 497 3044 497 3291 
Q 497 3856 930 4162 
Q 1363 4469 2169 4469 
Q 2919 4469 3316 4239 
Q 3713 4009 3872 3456 
L 3284 3353 
Q 3188 3703 2916 3861 
Q 2644 4019 2163 4019 
Q 1634 4019 1356 3844 
Q 1078 3669 1078 3322 
Q 1078 3119 1186 2986 
Q 1294 2853 1497 2761 
Q 1700 2669 2306 2534 
Q 2509 2488 2711 2439 
Q 2913 2391 3097 2323 
Q 3281 2256 3442 2165 
Q 3603 2075 3722 1944 
Q 3841 1813 3908 1634 
Q 3975 1456 3975 1216 
z
" transform="scale(0.015625)"/>
        <path id="Arimo-76" d="M 1916 0 
L 1250 0 
L 22 3381 
L 622 3381 
L 1366 1181 
Q 1406 1056 1581 441 
L 1691 806 
L 1813 1175 
L 2581 3381 
L 3178 3381 
L 1916 0 
z
" transform="scale(0.015625)"/>
       </defs>
       <use xlink:href="#Arimo-43"/>
       <use xlink:href="#Arimo-69" x="72.216797"/>
       <use xlink:href="#Arimo-74" x="94.433594"/>
       <use xlink:href="#Arimo-69" x="122.216797"/>
       <use xlink:href="#Arimo-7a" x="144.433594"/>
       <use xlink:href="#Arimo-65" x="194.433594"/>
       <use xlink:href="#Arimo-6e" x="250.048828"/>
       <use xlink:href="#Arimo-20" x="305.664062"/>
       <use xlink:href="#Arimo-41" x="333.447266"/>
       <use xlink:href="#Arimo-73" x="400.146484"/>
       <use xlink:href="#Arimo-73" x="450.146484"/>
       <use xlink:href="#Arimo-69" x="500.146484"/>
       <use xlink:href="#Arimo-73" x="522.363281"/>
       <use xlink:href="#Arimo-74" x="572.363281"/>
       <use xlink:href="#Arimo-20" x="600.146484"/>
       <use xlink:href="#Arimo-2f" x="627.929688"/>
       <use xlink:href="#Arimo-20" x="655.712891"/>
       <use xlink:href="#Arimo-53" x="683.496094"/>
       <use xlink:href="#Arimo-65" x="750.195312"/>
       <use xlink:href="#Arimo-72" x="805.810547"/>
       <use xlink:href="#Arimo-76" x="839.111328"/>
       <use xlink:href="#Arimo-69" x="889.111328"/>
       <use xlink:href="#Arimo-63" x="911.328125"/>
       <use xlink:href="#Arimo-65" x="961.328125"/>
       <use xlink:href="#Arimo-20" x="1016.943359"/>
       <use xlink:href="#Arimo-43" x="1044.726562"/>
       <use xlink:href="#Arimo-61" x="1116.943359"/>
       <use xlink:href="#Arimo-6c" x="1172.558594"/>
       <use xlink:href="#Arimo-6c" x="1194.775391"/>
      </g>
     </g>
    </g>
    <g id="ytick_6">
     <g id="text_14">
      <!-- Structure Fire -->
      <g style="fill: #262626" transform="translate(99.39575 101.864625) scale(0.088 -0.088)">
       <use xlink:href="#Arimo-53"/>
       <use xlink:href="#Arimo-74" x="66.699219"/>
       <use xlink:href="#Arimo-72" x="94.482422"/>
       <use xlink:href="#Arimo-75" x="127.783203"/>
       <use xlink:href="#Arimo-63" x="183.398438"/>
       <use xlink:href="#Arimo-74" x="233.398438"/>
       <use xlink:href="#Arimo-75" x="261.181641"/>
       <use xlink:href="#Arimo-72" x="316.796875"/>
       <use xlink:href="#Arimo-65" x="350.097656"/>
       <use xlink:href="#Arimo-20" x="405.712891"/>
       <use xlink:href="#Arimo-46" x="433.496094"/>
       <use xlink:href="#Arimo-69" x="494.580078"/>
       <use xlink:href="#Arimo-72" x="516.796875"/>
       <use xlink:href="#Arimo-65" x="550.097656"/>
      </g>
     </g>
    </g>
    <g id="ytick_7">
     <g id="text_15">
      <!-- Electrical Hazard -->
      <g style="fill: #262626" transform="translate(86.186125 118.496625) scale(0.088 -0.088)">
       <defs>
        <path id="Arimo-45" d="M 525 0 
L 525 4403 
L 3866 4403 
L 3866 3916 
L 1122 3916 
L 1122 2503 
L 3678 2503 
L 3678 2022 
L 1122 2022 
L 1122 488 
L 3994 488 
L 3994 0 
L 525 0 
z
" transform="scale(0.015625)"/>
        <path id="Arimo-48" d="M 3503 0 
L 3503 2041 
L 1122 2041 
L 1122 0 
L 525 0 
L 525 4403 
L 1122 4403 
L 1122 2541 
L 3503 2541 
L 3503 4403 
L 4100 4403 
L 4100 0 
L 3503 0 
z
" transform="scale(0.015625)"/>
       </defs>
       <use xlink:href="#Arimo-45"/>
       <use xlink:href="#Arimo-6c" x="66.699219"/>
       <use xlink:href="#Arimo-65" x="88.916016"/>
       <use xlink:href="#Arimo-63" x="144.53125"/>
       <use xlink:href="#Arimo-74" x="194.53125"/>
       <use xlink:href="#Arimo-72" x="222.314453"/>
       <use xlink:href="#Arimo-69" x="255.615234"/>
       <use xlink:href="#Arimo-63" x="277.832031"/>
       <use xlink:href="#Arimo-61" x="327.832031"/>
       <use xlink:href="#Arimo-6c" x="383.447266"/>
       <use xlink:href="#Arimo-20" x="405.664062"/>
       <use xlink:href="#Arimo-48" x="433.447266"/>
       <use xlink:href="#Arimo-61" x="505.664062"/>
       <use xlink:href="#Arimo-7a" x="561.279297"/>
       <use xlink:href="#Arimo-61" x="611.279297"/>
       <use xlink:href="#Arimo-72" x="666.894531"/>
       <use xlink:href="#Arimo-64" x="700.195312"/>
      </g>
     </g>
    </g>
    <g id="ytick_8">
     <g id="text_16">
      <!-- Gas Leak (Natural and LP Gases) -->
      <g style="fill: #262626" transform="translate(20.149 135.128625) scale(0.088 -0.088)">
       <defs>
        <path id="Arimo-47" d="M 322 2222 
Q 322 3294 897 3881 
Q 1472 4469 2513 4469 
Q 3244 4469 3700 4222 
Q 4156 3975 4403 3431 
L 3834 3263 
Q 3647 3638 3317 3809 
Q 2988 3981 2497 3981 
Q 1734 3981 1331 3520 
Q 928 3059 928 2222 
Q 928 1388 1356 905 
Q 1784 422 2541 422 
Q 2972 422 3345 553 
Q 3719 684 3950 909 
L 3950 1703 
L 2634 1703 
L 2634 2203 
L 4500 2203 
L 4500 684 
Q 4150 328 3642 132 
Q 3134 -63 2541 -63 
Q 1850 -63 1350 212 
Q 850 488 586 1005 
Q 322 1522 322 2222 
z
" transform="scale(0.015625)"/>
        <path id="Arimo-4c" d="M 525 0 
L 525 4403 
L 1122 4403 
L 1122 488 
L 3347 488 
L 3347 0 
L 525 0 
z
" transform="scale(0.015625)"/>
        <path id="Arimo-6b" d="M 2550 0 
L 1406 1544 
L 994 1203 
L 994 0 
L 431 0 
L 431 4638 
L 994 4638 
L 994 1741 
L 2478 3381 
L 3138 3381 
L 1766 1928 
L 3209 0 
L 2550 0 
z
" transform="scale(0.015625)"/>
        <path id="Arimo-28" d="M 397 1663 
Q 397 2566 680 3284 
Q 963 4003 1550 4638 
L 2094 4638 
Q 1509 3988 1236 3256 
Q 963 2525 963 1656 
Q 963 791 1233 62 
Q 1503 -666 2094 -1325 
L 1550 -1325 
Q 959 -688 678 32 
Q 397 753 397 1650 
L 397 1663 
z
" transform="scale(0.015625)"/>
        <path id="Arimo-4e" d="M 3381 0 
L 1025 3750 
L 1041 3447 
L 1056 2925 
L 1056 0 
L 525 0 
L 525 4403 
L 1219 4403 
L 3600 628 
Q 3563 1241 3563 1516 
L 3563 4403 
L 4100 4403 
L 4100 0 
L 3381 0 
z
" transform="scale(0.015625)"/>
        <path id="Arimo-50" d="M 3931 3078 
Q 3931 2453 3523 2084 
Q 3116 1716 2416 1716 
L 1122 1716 
L 1122 0 
L 525 0 
L 525 4403 
L 2378 4403 
Q 3119 4403 3525 4056 
Q 3931 3709 3931 3078 
z
M 3331 3072 
Q 3331 3925 2306 3925 
L 1122 3925 
L 1122 2188 
L 2331 2188 
Q 3331 2188 3331 3072 
z
" transform="scale(0.015625)"/>
        <path id="Arimo-29" d="M 1734 1650 
Q 1734 747 1451 28 
Q 1169 -691 581 -1325 
L 38 -1325 
Q 625 -669 897 57 
Q 1169 784 1169 1656 
Q 1169 2528 895 3256 
Q 622 3984 38 4638 
L 581 4638 
Q 1172 4000 1453 3279 
Q 1734 2559 1734 1663 
L 1734 1650 
z
" transform="scale(0.015625)"/>
       </defs>
       <use xlink:href="#Arimo-47"/>
       <use xlink:href="#Arimo-61" x="77.783203"/>
       <use xlink:href="#Arimo-73" x="133.398438"/>
       <use xlink:href="#Arimo-20" x="183.398438"/>
       <use xlink:href="#Arimo-4c" x="211.181641"/>
       <use xlink:href="#Arimo-65" x="266.796875"/>
       <use xlink:href="#Arimo-61" x="322.412109"/>
       <use xlink:href="#Arimo-6b" x="378.027344"/>
       <use xlink:href="#Arimo-20" x="428.027344"/>
       <use xlink:href="#Arimo-28" x="455.810547"/>
       <use xlink:href="#Arimo-4e" x="489.111328"/>
       <use xlink:href="#Arimo-61" x="561.328125"/>
       <use xlink:href="#Arimo-74" x="616.943359"/>
       <use xlink:href="#Arimo-75" x="644.726562"/>
       <use xlink:href="#Arimo-72" x="700.341797"/>
       <use xlink:href="#Arimo-61" x="733.642578"/>
       <use xlink:href="#Arimo-6c" x="789.257812"/>
       <use xlink:href="#Arimo-20" x="811.474609"/>
       <use xlink:href="#Arimo-61" x="839.257812"/>
       <use xlink:href="#Arimo-6e" x="894.873047"/>
       <use xlink:href="#Arimo-64" x="950.488281"/>
       <use xlink:href="#Arimo-20" x="1006.103516"/>
       <use xlink:href="#Arimo-4c" x="1033.886719"/>
       <use xlink:href="#Arimo-50" x="1089.501953"/>
       <use xlink:href="#Arimo-20" x="1156.201172"/>
       <use xlink:href="#Arimo-47" x="1183.984375"/>
       <use xlink:href="#Arimo-61" x="1261.767578"/>
       <use xlink:href="#Arimo-73" x="1317.382812"/>
       <use xlink:href="#Arimo-65" x="1367.382812"/>
       <use xlink:href="#Arimo-73" x="1422.998047"/>
       <use xlink:href="#Arimo-29" x="1472.998047"/>
      </g>
     </g>
    </g>
    <g id="ytick_9">
     <g id="text_17">
      <!-- Elevator / Escalator Rescue -->
      <g style="fill: #262626" transform="translate(44.118 151.760625) scale(0.088 -0.088)">
       <defs>
        <path id="Arimo-52" d="M 3638 0 
L 2494 1828 
L 1122 1828 
L 1122 0 
L 525 0 
L 525 4403 
L 2597 4403 
Q 3341 4403 3745 4070 
Q 4150 3738 4150 3144 
Q 4150 2653 3864 2318 
Q 3578 1984 3075 1897 
L 4325 0 
L 3638 0 
z
M 3550 3138 
Q 3550 3522 3289 3723 
Q 3028 3925 2538 3925 
L 1122 3925 
L 1122 2300 
L 2563 2300 
Q 3034 2300 3292 2520 
Q 3550 2741 3550 3138 
z
" transform="scale(0.015625)"/>
       </defs>
       <use xlink:href="#Arimo-45"/>
       <use xlink:href="#Arimo-6c" x="66.699219"/>
       <use xlink:href="#Arimo-65" x="88.916016"/>
       <use xlink:href="#Arimo-76" x="144.53125"/>
       <use xlink:href="#Arimo-61" x="194.53125"/>
       <use xlink:href="#Arimo-74" x="250.146484"/>
       <use xlink:href="#Arimo-6f" x="277.929688"/>
       <use xlink:href="#Arimo-72" x="333.544922"/>
       <use xlink:href="#Arimo-20" x="366.845703"/>
       <use xlink:href="#Arimo-2f" x="394.628906"/>
       <use xlink:href="#Arimo-20" x="422.412109"/>
       <use xlink:href="#Arimo-45" x="450.195312"/>
       <use xlink:href="#Arimo-73" x="516.894531"/>
       <use xlink:href="#Arimo-63" x="566.894531"/>
       <use xlink:href="#Arimo-61" x="616.894531"/>
       <use xlink:href="#Arimo-6c" x="672.509766"/>
       <use xlink:href="#Arimo-61" x="694.726562"/>
       <use xlink:href="#Arimo-74" x="750.341797"/>
       <use xlink:href="#Arimo-6f" x="778.125"/>
       <use xlink:href="#Arimo-72" x="833.740234"/>
       <use xlink:href="#Arimo-20" x="867.041016"/>
       <use xlink:href="#Arimo-52" x="894.824219"/>
       <use xlink:href="#Arimo-65" x="967.041016"/>
       <use xlink:href="#Arimo-73" x="1022.65625"/>
       <use xlink:href="#Arimo-63" x="1072.65625"/>
       <use xlink:href="#Arimo-75" x="1122.65625"/>
       <use xlink:href="#Arimo-65" x="1178.271484"/>
      </g>
     </g>
    </g>
    <g id="ytick_10">
     <g id="text_18">
      <!-- Smoke Investigation (Outside) -->
      <g style="fill: #262626" transform="translate(34.82575 168.392625) scale(0.088 -0.088)">
       <defs>
        <path id="Arimo-49" d="M 591 0 
L 591 4403 
L 1188 4403 
L 1188 0 
L 591 0 
z
" transform="scale(0.015625)"/>
        <path id="Arimo-67" d="M 1713 -1328 
Q 1159 -1328 831 -1111 
Q 503 -894 409 -494 
L 975 -413 
Q 1031 -647 1223 -773 
Q 1416 -900 1728 -900 
Q 2569 -900 2569 84 
L 2569 628 
L 2563 628 
Q 2403 303 2125 139 
Q 1847 -25 1475 -25 
Q 853 -25 561 387 
Q 269 800 269 1684 
Q 269 2581 583 3007 
Q 897 3434 1538 3434 
Q 1897 3434 2161 3270 
Q 2425 3106 2569 2803 
L 2575 2803 
Q 2575 2897 2587 3128 
Q 2600 3359 2613 3381 
L 3147 3381 
Q 3128 3213 3128 2681 
L 3128 97 
Q 3128 -1328 1713 -1328 
z
M 2569 1691 
Q 2569 2103 2456 2401 
Q 2344 2700 2139 2858 
Q 1934 3016 1675 3016 
Q 1244 3016 1047 2703 
Q 850 2391 850 1691 
Q 850 997 1034 694 
Q 1219 391 1666 391 
Q 1931 391 2137 547 
Q 2344 703 2456 995 
Q 2569 1288 2569 1691 
z
" transform="scale(0.015625)"/>
       </defs>
       <use xlink:href="#Arimo-53"/>
       <use xlink:href="#Arimo-6d" x="66.699219"/>
       <use xlink:href="#Arimo-6f" x="150"/>
       <use xlink:href="#Arimo-6b" x="205.615234"/>
       <use xlink:href="#Arimo-65" x="255.615234"/>
       <use xlink:href="#Arimo-20" x="311.230469"/>
       <use xlink:href="#Arimo-49" x="339.013672"/>
       <use xlink:href="#Arimo-6e" x="366.796875"/>
       <use xlink:href="#Arimo-76" x="422.412109"/>
       <use xlink:href="#Arimo-65" x="472.412109"/>
       <use xlink:href="#Arimo-73" x="528.027344"/>
       <use xlink:href="#Arimo-74" x="578.027344"/>
       <use xlink:href="#Arimo-69" x="605.810547"/>
       <use xlink:href="#Arimo-67" x="628.027344"/>
       <use xlink:href="#Arimo-61" x="683.642578"/>
       <use xlink:href="#Arimo-74" x="739.257812"/>
       <use xlink:href="#Arimo-69" x="767.041016"/>
       <use xlink:href="#Arimo-6f" x="789.257812"/>
       <use xlink:href="#Arimo-6e" x="844.873047"/>
       <use xlink:href="#Arimo-20" x="900.488281"/>
       <use xlink:href="#Arimo-28" x="928.271484"/>
       <use xlink:href="#Arimo-4f" x="961.572266"/>
       <use xlink:href="#Arimo-75" x="1039.355469"/>
       <use xlink:href="#Arimo-74" x="1094.970703"/>
       <use xlink:href="#Arimo-73" x="1122.753906"/>
       <use xlink:href="#Arimo-69" x="1172.753906"/>
       <use xlink:href="#Arimo-64" x="1194.970703"/>
       <use xlink:href="#Arimo-65" x="1250.585938"/>
       <use xlink:href="#Arimo-29" x="1306.201172"/>
      </g>
     </g>
    </g>
    <g id="text_19">
     <!-- Call Type -->
     <g style="fill: #262626" transform="translate(14.157 110.6325) rotate(-90) scale(0.096 -0.096)">
      <defs>
       <path id="Arimo-79" d="M 597 -1328 
Q 366 -1328 209 -1294 
L 209 -872 
Q 328 -891 472 -891 
Q 997 -891 1303 -119 
L 1356 16 
L 16 3381 
L 616 3381 
L 1328 1513 
Q 1344 1469 1366 1408 
Q 1388 1347 1506 1000 
Q 1625 653 1634 613 
L 1853 1228 
L 2594 3381 
L 3188 3381 
L 1888 0 
Q 1678 -541 1497 -805 
Q 1316 -1069 1095 -1198 
Q 875 -1328 597 -1328 
z
" transform="scale(0.015625)"/>
       <path id="Arimo-70" d="M 3291 1706 
Q 3291 -63 2047 -63 
Q 1266 -63 997 525 
L 981 525 
Q 994 500 994 -6 
L 994 -1328 
L 431 -1328 
L 431 2691 
Q 431 3213 413 3381 
L 956 3381 
Q 959 3369 965 3292 
Q 972 3216 980 3056 
Q 988 2897 988 2838 
L 1000 2838 
Q 1150 3150 1397 3295 
Q 1644 3441 2047 3441 
Q 2672 3441 2981 3022 
Q 3291 2603 3291 1706 
z
M 2700 1694 
Q 2700 2400 2509 2703 
Q 2319 3006 1903 3006 
Q 1569 3006 1380 2865 
Q 1191 2725 1092 2426 
Q 994 2128 994 1650 
Q 994 984 1206 668 
Q 1419 353 1897 353 
Q 2316 353 2508 661 
Q 2700 969 2700 1694 
z
" transform="scale(0.015625)"/>
      </defs>
      <use xlink:href="#Arimo-43"/>
      <use xlink:href="#Arimo-61" x="72.216797"/>
      <use xlink:href="#Arimo-6c" x="127.832031"/>
      <use xlink:href="#Arimo-6c" x="150.048828"/>
      <use xlink:href="#Arimo-20" x="172.265625"/>
      <use xlink:href="#Arimo-54" x="200.048828"/>
      <use xlink:href="#Arimo-79" x="261.132812"/>
      <use xlink:href="#Arimo-70" x="311.132812"/>
      <use xlink:href="#Arimo-65" x="366.748047"/>
     </g>
    </g>
   </g>
   <g id="patch_3">
    <path d="M 160.994875 8.8632 
L 400.137732 8.8632 
L 400.137732 22.1688 
L 160.994875 22.1688 
z
" clip-path="url(#paf5ecf46ad)" style="fill: #dc9f82; stroke: #ffffff; stroke-width: 0.8; stroke-linejoin: miter"/>
   </g>
   <g id="patch_4">
    <path d="M 160.994875 25.4952 
L 250.086179 25.4952 
L 250.086179 38.8008 
L 160.994875 38.8008 
z
" clip-path="url(#paf5ecf46ad)" style="fill: #d88c76; stroke: #ffffff; stroke-width: 0.8; stroke-linejoin: miter"/>
   </g>
   <g id="patch_5">
    <path d="M 160.994875 42.1272 
L 247.531728 42.1272 
L 247.531728 55.4328 
L 160.994875 55.4328 
z
" clip-path="url(#paf5ecf46ad)" style="fill: #d3796e; stroke: #ffffff; stroke-width: 0.8; stroke-linejoin: miter"/>
   </g>
   <g id="patch_6">
    <path d="M 160.994875 58.7592 
L 235.619513 58.7592 
L 235.619513 72.0648 
L 160.994875 72.0648 
z
" clip-path="url(#paf5ecf46ad)" style="fill: #ca666c; stroke: #ffffff; stroke-width: 0.8; stroke-linejoin: miter"/>
   </g>
   <g id="patch_7">
    <path d="M 160.994875 75.3912 
L 229.965061 75.3912 
L 229.965061 88.6968 
L 160.994875 88.6968 
z
" clip-path="url(#paf5ecf46ad)" style="fill: #bb566d; stroke: #ffffff; stroke-width: 0.8; stroke-linejoin: miter"/>
   </g>
   <g id="patch_8">
    <path d="M 160.994875 92.0232 
L 210.113509 92.0232 
L 210.113509 105.3288 
L 160.994875 105.3288 
z
" clip-path="url(#paf5ecf46ad)" style="fill: #a84d6f; stroke: #ffffff; stroke-width: 0.8; stroke-linejoin: miter"/>
   </g>
   <g id="patch_9">
    <path d="M 160.994875 108.6552 
L 186.988664 108.6552 
L 186.988664 121.9608 
L 160.994875 121.9608 
z
" clip-path="url(#paf5ecf46ad)" style="fill: #94456e; stroke: #ffffff; stroke-width: 0.8; stroke-linejoin: miter"/>
   </g>
   <g id="patch_10">
    <path d="M 160.994875 125.2872 
L 179.582039 125.2872 
L 179.582039 138.5928 
L 160.994875 138.5928 
z
" clip-path="url(#paf5ecf46ad)" style="fill: #803d6c; stroke: #ffffff; stroke-width: 0.8; stroke-linejoin: miter"/>
   </g>
   <g id="patch_11">
    <path d="M 160.994875 141.9192 
L 176.854295 141.9192 
L 176.854295 155.2248 
L 160.994875 155.2248 
z
" clip-path="url(#paf5ecf46ad)" style="fill: #6c3667; stroke: #ffffff; stroke-width: 0.8; stroke-linejoin: miter"/>
   </g>
   <g id="patch_12">
    <path d="M 160.994875 158.5512 
L 171.694047 158.5512 
L 171.694047 171.8568 
L 160.994875 171.8568 
z
" clip-path="url(#paf5ecf46ad)" style="fill: #5a3161; stroke: #ffffff; stroke-width: 0.8; stroke-linejoin: miter"/>
   </g>
   <g id="line2d_9">
    <path clip-path="url(#paf5ecf46ad)" style="fill: none; stroke: #424242; stroke-width: 2.16; stroke-linecap: round"/>
   </g>
   <g id="line2d_10">
    <path clip-path="url(#paf5ecf46ad)" style="fill: none; stroke: #424242; stroke-width: 2.16; stroke-linecap: round"/>
   </g>
   <g id="line2d_11">
    <path clip-path="url(#paf5ecf46ad)" style="fill: none; stroke: #424242; stroke-width: 2.16; stroke-linecap: round"/>
   </g>
   <g id="line2d_12">
    <path clip-path="url(#paf5ecf46ad)" style="fill: none; stroke: #424242; stroke-width: 2.16; stroke-linecap: round"/>
   </g>
   <g id="line2d_13">
    <path clip-path="url(#paf5ecf46ad)" style="fill: none; stroke: #424242; stroke-width: 2.16; stroke-linecap: round"/>
   </g>
   <g id="line2d_14">
    <path clip-path="url(#paf5ecf46ad)" style="fill: none; stroke: #424242; stroke-width: 2.16; stroke-linecap: round"/>
   </g>
   <g id="line2d_15">
    <path clip-path="url(#paf5ecf46ad)" style="fill: none; stroke: #424242; stroke-width: 2.16; stroke-linecap: round"/>
   </g>
   <g id="line2d_16">
    <path clip-path="url(#paf5ecf46ad)" style="fill: none; stroke: #424242; stroke-width: 2.16; stroke-linecap: round"/>
   </g>
   <g id="line2d_17">
    <path clip-path="url(#paf5ecf46ad)" style="fill: none; stroke: #424242; stroke-width: 2.16; stroke-linecap: round"/>
   </g>
   <g id="line2d_18">
    <path clip-path="url(#paf5ecf46ad)" style="fill: none; stroke: #424242; stroke-width: 2.16; stroke-linecap: round"/>
   </g>
   <g id="patch_13">
    <path d="M 160.994875 173.52 
L 160.994875 7.2 
" style="fill: none; stroke: #cccccc; stroke-linejoin: miter; stroke-linecap: square"/>
   </g>
   <g id="patch_14">
    <path d="M 412.094875 173.52 
L 412.094875 7.2 
" style="fill: none; stroke: #cccccc; stroke-linejoin: miter; stroke-linecap: square"/>
   </g>
   <g id="patch_15">
    <path d="M 160.994875 173.52 
L 412.094875 173.52 
" style="fill: none; stroke: #cccccc; stroke-linejoin: miter; stroke-linecap: square"/>
   </g>
   <g id="patch_16">
    <path d="M 160.994875 7.2 
L 412.094875 7.2 
" style="fill: none; stroke: #cccccc; stroke-linejoin: miter; stroke-linecap: square"/>
   </g>
  </g>
 </g>
 <defs>
  <clipPath id="paf5ecf46ad">
   <rect x="160.994875" y="7.2" width="251.1" height="166.32"/>
  </clipPath>
 </defs>
</svg>
