<?xml version="1.0" encoding="utf-8" standalone="no"?>
<!DOCTYPE svg PUBLIC "-//W3C//DTD SVG 1.1//EN"
  "http://www.w3.org/Graphics/SVG/1.1/DTD/svg11.dtd">
<svg xmlns:xlink="http://www.w3.org/1999/xlink" width="641.95025pt" height="209.53625pt" viewBox="0 0 641.95025 209.53625" xmlns="http://www.w3.org/2000/svg" version="1.1">
 <metadata>
  <rdf:RDF xmlns:dc="http://purl.org/dc/elements/1.1/" xmlns:cc="http://creativecommons.org/ns#" xmlns:rdf="http://www.w3.org/1999/02/22-rdf-syntax-ns#">
   <cc:Work>
    <dc:type rdf:resource="http://purl.org/dc/dcmitype/StillImage"/>
    <dc:date>2024-12-06T23:38:52.192973</dc:date>
    <dc:format>image/svg+xml</dc:format>
    <dc:creator>
     <cc:Agent>
      <dc:title>Matplotlib v3.7.1, https://matplotlib.org/</dc:title>
     </cc:Agent>
    </dc:creator>
   </cc:Work>
  </rdf:RDF>
 </metadata>
 <defs>
  <style type="text/css">*{stroke-linejoin: round; stroke-linecap: butt}</style>
 </defs>
 <g id="figure_1">
  <g id="patch_1">
   <path d="M 0 209.53625 
L 641.95025 209.53625 
L 641.95025 0 
L 0 0 
z
" style="fill: #f8f9fa"/>
  </g>
  <g id="axes_1">
   <g id="patch_2">
    <path d="M 38.23625 172.884 
L 304.90925 172.884 
L 304.90925 7.2 
L 38.23625 7.2 
z
" style="fill: #ffffff"/>
   </g>
   <g id="matplotlib.axis_1">
    <g id="xtick_1">
     <g id="line2d_1">
      <path d="M 48.995784 172.884 
L 48.995784 7.2 
" clip-path="url(#p802beb7cad)" style="fill: none; stroke: #cccccc; stroke-width: 0.8; stroke-linecap: round"/>
     </g>
     <g id="text_1">
      <!-- 0.0 -->
      <g style="fill: #262626" transform="translate(42.879784 187.56125) scale(0.088 -0.088)">
       <defs>
        <path id="Arimo-30" d="M 3309 2203 
Q 3309 1100 2920 518 
Q 2531 -63 1772 -63 
Q 1013 -63 631 515 
Q 250 1094 250 2203 
Q 250 3338 620 3903 
Q 991 4469 1791 4469 
Q 2569 4469 2939 3897 
Q 3309 3325 3309 2203 
z
M 2738 2203 
Q 2738 3156 2517 3584 
Q 2297 4013 1791 4013 
Q 1272 4013 1045 3591 
Q 819 3169 819 2203 
Q 819 1266 1048 831 
Q 1278 397 1778 397 
Q 2275 397 2506 840 
Q 2738 1284 2738 2203 
z
" transform="scale(0.015625)"/>
        <path id="Arimo-2e" d="M 584 0 
L 584 684 
L 1194 684 
L 1194 0 
L 584 0 
z
" transform="scale(0.015625)"/>
       </defs>
       <use xlink:href="#Arimo-30"/>
       <use xlink:href="#Arimo-2e" x="55.615234"/>
       <use xlink:href="#Arimo-30" x="83.398438"/>
      </g>
     </g>
    </g>
    <g id="xtick_2">
     <g id="line2d_2">
      <path d="M 83.044941 172.884 
L 83.044941 7.2 
" clip-path="url(#p802beb7cad)" style="fill: none; stroke: #cccccc; stroke-width: 0.8; stroke-linecap: round"/>
     </g>
     <g id="text_2">
      <!-- 2.5 -->
      <g style="fill: #262626" transform="translate(76.928941 187.56125) scale(0.088 -0.088)">
       <defs>
        <path id="Arimo-32" d="M 322 0 
L 322 397 
Q 481 763 711 1042 
Q 941 1322 1194 1548 
Q 1447 1775 1695 1969 
Q 1944 2163 2144 2356 
Q 2344 2550 2467 2762 
Q 2591 2975 2591 3244 
Q 2591 3606 2378 3806 
Q 2166 4006 1788 4006 
Q 1428 4006 1195 3811 
Q 963 3616 922 3263 
L 347 3316 
Q 409 3844 795 4156 
Q 1181 4469 1788 4469 
Q 2453 4469 2811 4155 
Q 3169 3841 3169 3263 
Q 3169 3006 3051 2753 
Q 2934 2500 2703 2247 
Q 2472 1994 1819 1463 
Q 1459 1169 1246 933 
Q 1034 697 941 478 
L 3238 478 
L 3238 0 
L 322 0 
z
" transform="scale(0.015625)"/>
        <path id="Arimo-35" d="M 3291 1434 
Q 3291 738 2877 337 
Q 2463 -63 1728 -63 
Q 1113 -63 734 206 
Q 356 475 256 984 
L 825 1050 
Q 1003 397 1741 397 
Q 2194 397 2450 670 
Q 2706 944 2706 1422 
Q 2706 1838 2448 2094 
Q 2191 2350 1753 2350 
Q 1525 2350 1328 2278 
Q 1131 2206 934 2034 
L 384 2034 
L 531 4403 
L 3034 4403 
L 3034 3925 
L 1044 3925 
L 959 2528 
Q 1325 2809 1869 2809 
Q 2519 2809 2905 2428 
Q 3291 2047 3291 1434 
z
" transform="scale(0.015625)"/>
       </defs>
       <use xlink:href="#Arimo-32"/>
       <use xlink:href="#Arimo-2e" x="55.615234"/>
       <use xlink:href="#Arimo-35" x="83.398438"/>
      </g>
     </g>
    </g>
    <g id="xtick_3">
     <g id="line2d_3">
      <path d="M 117.094098 172.884 
L 117.094098 7.2 
" clip-path="url(#p802beb7cad)" style="fill: none; stroke: #cccccc; stroke-width: 0.8; stroke-linecap: round"/>
     </g>
     <g id="text_3">
      <!-- 5.0 -->
      <g style="fill: #262626" transform="translate(110.978098 187.56125) scale(0.088 -0.088)">
       <use xlink:href="#Arimo-35"/>
       <use xlink:href="#Arimo-2e" x="55.615234"/>
       <use xlink:href="#Arimo-30" x="83.398438"/>
      </g>
     </g>
    </g>
    <g id="xtick_4">
     <g id="line2d_4">
      <path d="M 151.143256 172.884 
L 151.143256 7.2 
" clip-path="url(#p802beb7cad)" style="fill: none; stroke: #cccccc; stroke-width: 0.8; stroke-linecap: round"/>
     </g>
     <g id="text_4">
      <!-- 7.5 -->
      <g style="fill: #262626" transform="translate(145.027256 187.56125) scale(0.088 -0.088)">
       <defs>
        <path id="Arimo-37" d="M 3238 3947 
Q 2563 2916 2284 2331 
Q 2006 1747 1867 1178 
Q 1728 609 1728 0 
L 1141 0 
Q 1141 844 1498 1776 
Q 1856 2709 2694 3925 
L 328 3925 
L 328 4403 
L 3238 4403 
L 3238 3947 
z
" transform="scale(0.015625)"/>
       </defs>
       <use xlink:href="#Arimo-37"/>
       <use xlink:href="#Arimo-2e" x="55.615234"/>
       <use xlink:href="#Arimo-35" x="83.398438"/>
      </g>
     </g>
    </g>
    <g id="xtick_5">
     <g id="line2d_5">
      <path d="M 185.192413 172.884 
L 185.192413 7.2 
" clip-path="url(#p802beb7cad)" style="fill: none; stroke: #cccccc; stroke-width: 0.8; stroke-linecap: round"/>
     </g>
     <g id="text_5">
      <!-- 10.0 -->
      <g style="fill: #262626" transform="translate(176.6296 187.56125) scale(0.088 -0.088)">
       <defs>
        <path id="Arimo-31" d="M 488 0 
L 488 478 
L 1609 478 
L 1609 3866 
L 616 3156 
L 616 3688 
L 1656 4403 
L 2175 4403 
L 2175 478 
L 3247 478 
L 3247 0 
L 488 0 
z
" transform="scale(0.015625)"/>
       </defs>
       <use xlink:href="#Arimo-31"/>
       <use xlink:href="#Arimo-30" x="55.615234"/>
       <use xlink:href="#Arimo-2e" x="111.230469"/>
       <use xlink:href="#Arimo-30" x="139.013672"/>
      </g>
     </g>
    </g>
    <g id="xtick_6">
     <g id="line2d_6">
      <path d="M 219.24157 172.884 
L 219.24157 7.2 
" clip-path="url(#p802beb7cad)" style="fill: none; stroke: #cccccc; stroke-width: 0.8; stroke-linecap: round"/>
     </g>
     <g id="text_6">
      <!-- 12.5 -->
      <g style="fill: #262626" transform="translate(210.678758 187.56125) scale(0.088 -0.088)">
       <use xlink:href="#Arimo-31"/>
       <use xlink:href="#Arimo-32" x="55.615234"/>
       <use xlink:href="#Arimo-2e" x="111.230469"/>
       <use xlink:href="#Arimo-35" x="139.013672"/>
      </g>
     </g>
    </g>
    <g id="xtick_7">
     <g id="line2d_7">
      <path d="M 253.290728 172.884 
L 253.290728 7.2 
" clip-path="url(#p802beb7cad)" style="fill: none; stroke: #cccccc; stroke-width: 0.8; stroke-linecap: round"/>
     </g>
     <g id="text_7">
      <!-- 15.0 -->
      <g style="fill: #262626" transform="translate(244.727915 187.56125) scale(0.088 -0.088)">
       <use xlink:href="#Arimo-31"/>
       <use xlink:href="#Arimo-35" x="55.615234"/>
       <use xlink:href="#Arimo-2e" x="111.230469"/>
       <use xlink:href="#Arimo-30" x="139.013672"/>
      </g>
     </g>
    </g>
    <g id="xtick_8">
     <g id="line2d_8">
      <path d="M 287.339885 172.884 
L 287.339885 7.2 
" clip-path="url(#p802beb7cad)" style="fill: none; stroke: #cccccc; stroke-width: 0.8; stroke-linecap: round"/>
     </g>
     <g id="text_8">
      <!-- 17.5 -->
      <g style="fill: #262626" transform="translate(278.777072 187.56125) scale(0.088 -0.088)">
       <use xlink:href="#Arimo-31"/>
       <use xlink:href="#Arimo-37" x="55.615234"/>
       <use xlink:href="#Arimo-2e" x="111.230469"/>
       <use xlink:href="#Arimo-35" x="139.013672"/>
      </g>
     </g>
    </g>
    <g id="text_9">
     <!-- Fire-related incidents (3 day interval) -->
     <g style="fill: #262626" transform="translate(93.67925 200.34425) scale(0.096 -0.096)">
      <defs>
       <path id="Arimo-46" d="M 1122 3916 
L 1122 2278 
L 3578 2278 
L 3578 1784 
L 1122 1784 
L 1122 0 
L 525 0 
L 525 4403 
L 3653 4403 
L 3653 3916 
L 1122 3916 
z
" transform="scale(0.015625)"/>
       <path id="Arimo-69" d="M 428 0 
L 428 3381 
L 991 3381 
L 991 0 
L 428 0 
z
M 428 4100 
L 428 4638 
L 991 4638 
L 991 4100 
L 428 4100 
z
" transform="scale(0.015625)"/>
       <path id="Arimo-72" d="M 444 0 
L 444 2594 
Q 444 2950 425 3381 
L 956 3381 
Q 981 2806 981 2691 
L 994 2691 
Q 1128 3125 1303 3284 
Q 1478 3444 1797 3444 
Q 1909 3444 2025 3413 
L 2025 2897 
Q 1913 2928 1725 2928 
Q 1375 2928 1190 2626 
Q 1006 2325 1006 1763 
L 1006 0 
L 444 0 
z
" transform="scale(0.015625)"/>
       <path id="Arimo-65" d="M 863 1572 
Q 863 991 1103 675 
Q 1344 359 1806 359 
Q 2172 359 2392 506 
Q 2613 653 2691 878 
L 3184 738 
Q 2881 -63 1806 -63 
Q 1056 -63 664 384 
Q 272 831 272 1713 
Q 272 2550 664 2997 
Q 1056 3444 1784 3444 
Q 3275 3444 3275 1647 
L 3275 1572 
L 863 1572 
z
M 2694 2003 
Q 2647 2538 2422 2783 
Q 2197 3028 1775 3028 
Q 1366 3028 1127 2754 
Q 888 2481 869 2003 
L 2694 2003 
z
" transform="scale(0.015625)"/>
       <path id="Arimo-2d" d="M 284 1450 
L 284 1950 
L 1847 1950 
L 1847 1450 
L 284 1450 
z
" transform="scale(0.015625)"/>
       <path id="Arimo-6c" d="M 431 0 
L 431 4638 
L 994 4638 
L 994 0 
L 431 0 
z
" transform="scale(0.015625)"/>
       <path id="Arimo-61" d="M 1294 -63 
Q 784 -63 528 206 
Q 272 475 272 944 
Q 272 1469 617 1750 
Q 963 2031 1731 2050 
L 2491 2063 
L 2491 2247 
Q 2491 2659 2316 2837 
Q 2141 3016 1766 3016 
Q 1388 3016 1216 2887 
Q 1044 2759 1009 2478 
L 422 2531 
Q 566 3444 1778 3444 
Q 2416 3444 2737 3151 
Q 3059 2859 3059 2306 
L 3059 850 
Q 3059 600 3125 473 
Q 3191 347 3375 347 
Q 3456 347 3559 369 
L 3559 19 
Q 3347 -31 3125 -31 
Q 2813 -31 2670 133 
Q 2528 297 2509 647 
L 2491 647 
Q 2275 259 1989 98 
Q 1703 -63 1294 -63 
z
M 1422 359 
Q 1731 359 1972 500 
Q 2213 641 2352 886 
Q 2491 1131 2491 1391 
L 2491 1669 
L 1875 1656 
Q 1478 1650 1273 1575 
Q 1069 1500 959 1344 
Q 850 1188 850 934 
Q 850 659 998 509 
Q 1147 359 1422 359 
z
" transform="scale(0.015625)"/>
       <path id="Arimo-74" d="M 1731 25 
Q 1453 -50 1163 -50 
Q 488 -50 488 716 
L 488 2972 
L 97 2972 
L 97 3381 
L 509 3381 
L 675 4138 
L 1050 4138 
L 1050 3381 
L 1675 3381 
L 1675 2972 
L 1050 2972 
L 1050 838 
Q 1050 594 1129 495 
Q 1209 397 1406 397 
Q 1519 397 1731 441 
L 1731 25 
z
" transform="scale(0.015625)"/>
       <path id="Arimo-64" d="M 2566 544 
Q 2409 219 2151 78 
Q 1894 -63 1513 -63 
Q 872 -63 570 368 
Q 269 800 269 1675 
Q 269 3444 1513 3444 
Q 1897 3444 2153 3303 
Q 2409 3163 2566 2856 
L 2572 2856 
L 2566 3234 
L 2566 4638 
L 3128 4638 
L 3128 697 
Q 3128 169 3147 0 
L 2609 0 
Q 2600 50 2589 231 
Q 2578 413 2578 544 
L 2566 544 
z
M 859 1694 
Q 859 984 1046 678 
Q 1234 372 1656 372 
Q 2134 372 2350 703 
Q 2566 1034 2566 1731 
Q 2566 2403 2350 2715 
Q 2134 3028 1663 3028 
Q 1238 3028 1048 2714 
Q 859 2400 859 1694 
z
" transform="scale(0.015625)"/>
       <path id="Arimo-20" transform="scale(0.015625)"/>
       <path id="Arimo-6e" d="M 2578 0 
L 2578 2144 
Q 2578 2478 2512 2662 
Q 2447 2847 2303 2928 
Q 2159 3009 1881 3009 
Q 1475 3009 1240 2731 
Q 1006 2453 1006 1959 
L 1006 0 
L 444 0 
L 444 2659 
Q 444 3250 425 3381 
L 956 3381 
Q 959 3366 962 3297 
Q 966 3228 970 3139 
Q 975 3050 981 2803 
L 991 2803 
Q 1184 3153 1439 3298 
Q 1694 3444 2072 3444 
Q 2628 3444 2886 3167 
Q 3144 2891 3144 2253 
L 3144 0 
L 2578 0 
z
" transform="scale(0.015625)"/>
       <path id="Arimo-63" d="M 859 1706 
Q 859 1031 1071 706 
Q 1284 381 1713 381 
Q 2013 381 2214 543 
Q 2416 706 2463 1044 
L 3031 1006 
Q 2966 519 2616 228 
Q 2266 -63 1728 -63 
Q 1019 -63 645 385 
Q 272 834 272 1694 
Q 272 2547 647 2995 
Q 1022 3444 1722 3444 
Q 2241 3444 2583 3175 
Q 2925 2906 3013 2434 
L 2434 2391 
Q 2391 2672 2212 2837 
Q 2034 3003 1706 3003 
Q 1259 3003 1059 2706 
Q 859 2409 859 1706 
z
" transform="scale(0.015625)"/>
       <path id="Arimo-73" d="M 2969 934 
Q 2969 456 2608 196 
Q 2247 -63 1597 -63 
Q 966 -63 623 145 
Q 281 353 178 794 
L 675 891 
Q 747 619 972 492 
Q 1197 366 1597 366 
Q 2025 366 2223 497 
Q 2422 628 2422 891 
Q 2422 1091 2284 1216 
Q 2147 1341 1841 1422 
L 1438 1528 
Q 953 1653 748 1773 
Q 544 1894 428 2066 
Q 313 2238 313 2488 
Q 313 2950 642 3192 
Q 972 3434 1603 3434 
Q 2163 3434 2492 3237 
Q 2822 3041 2909 2606 
L 2403 2544 
Q 2356 2769 2151 2889 
Q 1947 3009 1603 3009 
Q 1222 3009 1040 2893 
Q 859 2778 859 2544 
Q 859 2400 934 2306 
Q 1009 2213 1156 2147 
Q 1303 2081 1775 1966 
Q 2222 1853 2419 1758 
Q 2616 1663 2730 1547 
Q 2844 1431 2906 1279 
Q 2969 1128 2969 934 
z
" transform="scale(0.015625)"/>
       <path id="Arimo-28" d="M 397 1663 
Q 397 2566 680 3284 
Q 963 4003 1550 4638 
L 2094 4638 
Q 1509 3988 1236 3256 
Q 963 2525 963 1656 
Q 963 791 1233 62 
Q 1503 -666 2094 -1325 
L 1550 -1325 
Q 959 -688 678 32 
Q 397 753 397 1650 
L 397 1663 
z
" transform="scale(0.015625)"/>
       <path id="Arimo-33" d="M 3278 1216 
Q 3278 606 2890 271 
Q 2503 -63 1784 -63 
Q 1116 -63 717 239 
Q 319 541 244 1131 
L 825 1184 
Q 938 403 1784 403 
Q 2209 403 2451 612 
Q 2694 822 2694 1234 
Q 2694 1594 2417 1795 
Q 2141 1997 1619 1997 
L 1300 1997 
L 1300 2484 
L 1606 2484 
Q 2069 2484 2323 2686 
Q 2578 2888 2578 3244 
Q 2578 3597 2370 3801 
Q 2163 4006 1753 4006 
Q 1381 4006 1151 3815 
Q 922 3625 884 3278 
L 319 3322 
Q 381 3863 767 4166 
Q 1153 4469 1759 4469 
Q 2422 4469 2789 4161 
Q 3156 3853 3156 3303 
Q 3156 2881 2920 2617 
Q 2684 2353 2234 2259 
L 2234 2247 
Q 2728 2194 3003 1916 
Q 3278 1638 3278 1216 
z
" transform="scale(0.015625)"/>
       <path id="Arimo-79" d="M 597 -1328 
Q 366 -1328 209 -1294 
L 209 -872 
Q 328 -891 472 -891 
Q 997 -891 1303 -119 
L 1356 16 
L 16 3381 
L 616 3381 
L 1328 1513 
Q 1344 1469 1366 1408 
Q 1388 1347 1506 1000 
Q 1625 653 1634 613 
L 1853 1228 
L 2594 3381 
L 3188 3381 
L 1888 0 
Q 1678 -541 1497 -805 
Q 1316 -1069 1095 -1198 
Q 875 -1328 597 -1328 
z
" transform="scale(0.015625)"/>
       <path id="Arimo-76" d="M 1916 0 
L 1250 0 
L 22 3381 
L 622 3381 
L 1366 1181 
Q 1406 1056 1581 441 
L 1691 806 
L 1813 1175 
L 2581 3381 
L 3178 3381 
L 1916 0 
z
" transform="scale(0.015625)"/>
       <path id="Arimo-29" d="M 1734 1650 
Q 1734 747 1451 28 
Q 1169 -691 581 -1325 
L 38 -1325 
Q 625 -669 897 57 
Q 1169 784 1169 1656 
Q 1169 2528 895 3256 
Q 622 3984 38 4638 
L 581 4638 
Q 1172 4000 1453 3279 
Q 1734 2559 1734 1663 
L 1734 1650 
z
" transform="scale(0.015625)"/>
      </defs>
      <use xlink:href="#Arimo-46"/>
      <use xlink:href="#Arimo-69" x="61.083984"/>
      <use xlink:href="#Arimo-72" x="83.300781"/>
      <use xlink:href="#Arimo-65" x="116.601562"/>
      <use xlink:href="#Arimo-2d" x="172.216797"/>
      <use xlink:href="#Arimo-72" x="205.517578"/>
      <use xlink:href="#Arimo-65" x="238.818359"/>
      <use xlink:href="#Arimo-6c" x="294.433594"/>
      <use xlink:href="#Arimo-61" x="316.650391"/>
      <use xlink:href="#Arimo-74" x="372.265625"/>
      <use xlink:href="#Arimo-65" x="400.048828"/>
      <use xlink:href="#Arimo-64" x="455.664062"/>
      <use xlink:href="#Arimo-20" x="511.279297"/>
      <use xlink:href="#Arimo-69" x="539.0625"/>
      <use xlink:href="#Arimo-6e" x="561.279297"/>
      <use xlink:href="#Arimo-63" x="616.894531"/>
      <use xlink:href="#Arimo-69" x="666.894531"/>
      <use xlink:href="#Arimo-64" x="689.111328"/>
      <use xlink:href="#Arimo-65" x="744.726562"/>
      <use xlink:href="#Arimo-6e" x="800.341797"/>
      <use xlink:href="#Arimo-74" x="855.957031"/>
      <use xlink:href="#Arimo-73" x="883.740234"/>
      <use xlink:href="#Arimo-20" x="933.740234"/>
      <use xlink:href="#Arimo-28" x="961.523438"/>
      <use xlink:href="#Arimo-33" x="994.824219"/>
      <use xlink:href="#Arimo-20" x="1050.439453"/>
      <use xlink:href="#Arimo-64" x="1078.222656"/>
      <use xlink:href="#Arimo-61" x="1133.837891"/>
      <use xlink:href="#Arimo-79" x="1189.453125"/>
      <use xlink:href="#Arimo-20" x="1239.453125"/>
      <use xlink:href="#Arimo-69" x="1267.236328"/>
      <use xlink:href="#Arimo-6e" x="1289.453125"/>
      <use xlink:href="#Arimo-74" x="1345.068359"/>
      <use xlink:href="#Arimo-65" x="1372.851562"/>
      <use xlink:href="#Arimo-72" x="1428.466797"/>
      <use xlink:href="#Arimo-76" x="1461.767578"/>
      <use xlink:href="#Arimo-61" x="1511.767578"/>
      <use xlink:href="#Arimo-6c" x="1567.382812"/>
      <use xlink:href="#Arimo-29" x="1589.599609"/>
     </g>
    </g>
   </g>
   <g id="matplotlib.axis_2">
    <g id="ytick_1">
     <g id="line2d_9">
      <path d="M 38.23625 172.884 
L 304.90925 172.884 
" clip-path="url(#p802beb7cad)" style="fill: none; stroke: #cccccc; stroke-width: 0.8; stroke-linecap: round"/>
     </g>
     <g id="text_10">
      <!-- 0 -->
      <g style="fill: #262626" transform="translate(25.042625 176.072625) scale(0.088 -0.088)">
       <use xlink:href="#Arimo-30"/>
      </g>
     </g>
    </g>
    <g id="ytick_2">
     <g id="line2d_10">
      <path d="M 38.23625 147.433309 
L 304.90925 147.433309 
" clip-path="url(#p802beb7cad)" style="fill: none; stroke: #cccccc; stroke-width: 0.8; stroke-linecap: round"/>
     </g>
     <g id="text_11">
      <!-- 5 -->
      <g style="fill: #262626" transform="translate(25.042625 150.621934) scale(0.088 -0.088)">
       <use xlink:href="#Arimo-35"/>
      </g>
     </g>
    </g>
    <g id="ytick_3">
     <g id="line2d_11">
      <path d="M 38.23625 121.982618 
L 304.90925 121.982618 
" clip-path="url(#p802beb7cad)" style="fill: none; stroke: #cccccc; stroke-width: 0.8; stroke-linecap: round"/>
     </g>
     <g id="text_12">
      <!-- 10 -->
      <g style="fill: #262626" transform="translate(20.149 125.171243) scale(0.088 -0.088)">
       <use xlink:href="#Arimo-31"/>
       <use xlink:href="#Arimo-30" x="55.615234"/>
      </g>
     </g>
    </g>
    <g id="ytick_4">
     <g id="line2d_12">
      <path d="M 38.23625 96.531926 
L 304.90925 96.531926 
" clip-path="url(#p802beb7cad)" style="fill: none; stroke: #cccccc; stroke-width: 0.8; stroke-linecap: round"/>
     </g>
     <g id="text_13">
      <!-- 15 -->
      <g style="fill: #262626" transform="translate(20.149 99.720551) scale(0.088 -0.088)">
       <use xlink:href="#Arimo-31"/>
       <use xlink:href="#Arimo-35" x="55.615234"/>
      </g>
     </g>
    </g>
    <g id="ytick_5">
     <g id="line2d_13">
      <path d="M 38.23625 71.081235 
L 304.90925 71.081235 
" clip-path="url(#p802beb7cad)" style="fill: none; stroke: #cccccc; stroke-width: 0.8; stroke-linecap: round"/>
     </g>
     <g id="text_14">
      <!-- 20 -->
      <g style="fill: #262626" transform="translate(20.149 74.26986) scale(0.088 -0.088)">
       <use xlink:href="#Arimo-32"/>
       <use xlink:href="#Arimo-30" x="55.615234"/>
      </g>
     </g>
    </g>
    <g id="ytick_6">
     <g id="line2d_14">
      <path d="M 38.23625 45.630544 
L 304.90925 45.630544 
" clip-path="url(#p802beb7cad)" style="fill: none; stroke: #cccccc; stroke-width: 0.8; stroke-linecap: round"/>
     </g>
     <g id="text_15">
      <!-- 25 -->
      <g style="fill: #262626" transform="translate(20.149 48.819169) scale(0.088 -0.088)">
       <use xlink:href="#Arimo-32"/>
       <use xlink:href="#Arimo-35" x="55.615234"/>
      </g>
     </g>
    </g>
    <g id="ytick_7">
     <g id="line2d_15">
      <path d="M 38.23625 20.179853 
L 304.90925 20.179853 
" clip-path="url(#p802beb7cad)" style="fill: none; stroke: #cccccc; stroke-width: 0.8; stroke-linecap: round"/>
     </g>
     <g id="text_16">
      <!-- 30 -->
      <g style="fill: #262626" transform="translate(20.149 23.368478) scale(0.088 -0.088)">
       <use xlink:href="#Arimo-33"/>
       <use xlink:href="#Arimo-30" x="55.615234"/>
      </g>
     </g>
    </g>
    <g id="text_17">
     <!-- Count -->
     <g style="fill: #262626" transform="translate(14.157 102.84975) rotate(-90) scale(0.096 -0.096)">
      <defs>
       <path id="Arimo-43" d="M 2475 3981 
Q 1744 3981 1337 3511 
Q 931 3041 931 2222 
Q 931 1413 1354 920 
Q 1778 428 2500 428 
Q 3425 428 3891 1344 
L 4378 1100 
Q 4106 531 3614 234 
Q 3122 -63 2472 -63 
Q 1806 -63 1320 214 
Q 834 491 579 1005 
Q 325 1519 325 2222 
Q 325 3275 894 3872 
Q 1463 4469 2469 4469 
Q 3172 4469 3644 4194 
Q 4116 3919 4338 3378 
L 3772 3191 
Q 3619 3575 3280 3778 
Q 2941 3981 2475 3981 
z
" transform="scale(0.015625)"/>
       <path id="Arimo-6f" d="M 3291 1694 
Q 3291 806 2900 371 
Q 2509 -63 1766 -63 
Q 1025 -63 647 389 
Q 269 841 269 1694 
Q 269 3444 1784 3444 
Q 2559 3444 2925 3017 
Q 3291 2591 3291 1694 
z
M 2700 1694 
Q 2700 2394 2492 2711 
Q 2284 3028 1794 3028 
Q 1300 3028 1079 2704 
Q 859 2381 859 1694 
Q 859 1025 1076 689 
Q 1294 353 1759 353 
Q 2266 353 2483 678 
Q 2700 1003 2700 1694 
z
" transform="scale(0.015625)"/>
       <path id="Arimo-75" d="M 981 3381 
L 981 1238 
Q 981 903 1047 718 
Q 1113 534 1256 453 
Q 1400 372 1678 372 
Q 2084 372 2318 650 
Q 2553 928 2553 1422 
L 2553 3381 
L 3116 3381 
L 3116 722 
Q 3116 131 3134 0 
L 2603 0 
Q 2600 16 2597 84 
Q 2594 153 2589 242 
Q 2584 331 2578 578 
L 2569 578 
Q 2375 228 2120 82 
Q 1866 -63 1488 -63 
Q 931 -63 673 214 
Q 416 491 416 1128 
L 416 3381 
L 981 3381 
z
" transform="scale(0.015625)"/>
      </defs>
      <use xlink:href="#Arimo-43"/>
      <use xlink:href="#Arimo-6f" x="72.216797"/>
      <use xlink:href="#Arimo-75" x="127.832031"/>
      <use xlink:href="#Arimo-6e" x="183.447266"/>
      <use xlink:href="#Arimo-74" x="239.0625"/>
     </g>
    </g>
   </g>
   <g id="patch_3">
    <path d="M 68.744295 172.884 
L 74.873143 172.884 
L 74.873143 172.884 
L 68.744295 172.884 
z
" clip-path="url(#p802beb7cad)" style="fill: #c44e52; fill-opacity: 0.75; stroke: #ffffff; stroke-width: 0.524631; stroke-linejoin: miter"/>
   </g>
   <g id="patch_4">
    <path d="M 95.983621 172.884 
L 102.112469 172.884 
L 102.112469 20.179853 
L 95.983621 20.179853 
z
" clip-path="url(#p802beb7cad)" style="fill: #c44e52; fill-opacity: 0.75; stroke: #ffffff; stroke-width: 0.524631; stroke-linejoin: miter"/>
   </g>
   <g id="patch_5">
    <path d="M 123.222947 172.884 
L 129.351795 172.884 
L 129.351795 50.720682 
L 123.222947 50.720682 
z
" clip-path="url(#p802beb7cad)" style="fill: #c44e52; fill-opacity: 0.75; stroke: #ffffff; stroke-width: 0.524631; stroke-linejoin: miter"/>
   </g>
   <g id="patch_6">
    <path d="M 150.462272 172.884 
L 156.591121 172.884 
L 156.591121 45.630544 
L 150.462272 45.630544 
z
" clip-path="url(#p802beb7cad)" style="fill: #c44e52; fill-opacity: 0.75; stroke: #ffffff; stroke-width: 0.524631; stroke-linejoin: miter"/>
   </g>
   <g id="patch_7">
    <path d="M 177.701598 172.884 
L 183.830447 172.884 
L 183.830447 121.982618 
L 177.701598 121.982618 
z
" clip-path="url(#p802beb7cad)" style="fill: #c44e52; fill-opacity: 0.75; stroke: #ffffff; stroke-width: 0.524631; stroke-linejoin: miter"/>
   </g>
   <g id="patch_8">
    <path d="M 204.940924 172.884 
L 211.069772 172.884 
L 211.069772 162.703724 
L 204.940924 162.703724 
z
" clip-path="url(#p802beb7cad)" style="fill: #c44e52; fill-opacity: 0.75; stroke: #ffffff; stroke-width: 0.524631; stroke-linejoin: miter"/>
   </g>
   <g id="patch_9">
    <path d="M 232.18025 172.884 
L 238.309098 172.884 
L 238.309098 172.884 
L 232.18025 172.884 
z
" clip-path="url(#p802beb7cad)" style="fill: #c44e52; fill-opacity: 0.75; stroke: #ffffff; stroke-width: 0.524631; stroke-linejoin: miter"/>
   </g>
   <g id="patch_10">
    <path d="M 259.419576 172.884 
L 265.548424 172.884 
L 265.548424 172.884 
L 259.419576 172.884 
z
" clip-path="url(#p802beb7cad)" style="fill: #c44e52; fill-opacity: 0.75; stroke: #ffffff; stroke-width: 0.524631; stroke-linejoin: miter"/>
   </g>
   <g id="patch_11">
    <path d="M 286.658902 172.884 
L 292.78775 172.884 
L 292.78775 172.884 
L 286.658902 172.884 
z
" clip-path="url(#p802beb7cad)" style="fill: #c44e52; fill-opacity: 0.75; stroke: #ffffff; stroke-width: 0.524631; stroke-linejoin: miter"/>
   </g>
   <g id="patch_12">
    <path d="M 62.615447 172.884 
L 68.744295 172.884 
L 68.744295 162.703724 
L 62.615447 162.703724 
z
" clip-path="url(#p802beb7cad)" style="fill: #55a868; fill-opacity: 0.75; stroke: #ffffff; stroke-width: 0.524631; stroke-linejoin: miter"/>
   </g>
   <g id="patch_13">
    <path d="M 89.854772 172.884 
L 95.983621 172.884 
L 95.983621 101.622065 
L 89.854772 101.622065 
z
" clip-path="url(#p802beb7cad)" style="fill: #55a868; fill-opacity: 0.75; stroke: #ffffff; stroke-width: 0.524631; stroke-linejoin: miter"/>
   </g>
   <g id="patch_14">
    <path d="M 117.094098 172.884 
L 123.222947 172.884 
L 123.222947 20.179853 
L 117.094098 20.179853 
z
" clip-path="url(#p802beb7cad)" style="fill: #55a868; fill-opacity: 0.75; stroke: #ffffff; stroke-width: 0.524631; stroke-linejoin: miter"/>
   </g>
   <g id="patch_15">
    <path d="M 144.333424 172.884 
L 150.462272 172.884 
L 150.462272 65.991097 
L 144.333424 65.991097 
z
" clip-path="url(#p802beb7cad)" style="fill: #55a868; fill-opacity: 0.75; stroke: #ffffff; stroke-width: 0.524631; stroke-linejoin: miter"/>
   </g>
   <g id="patch_16">
    <path d="M 171.57275 172.884 
L 177.701598 172.884 
L 177.701598 86.35165 
L 171.57275 86.35165 
z
" clip-path="url(#p802beb7cad)" style="fill: #55a868; fill-opacity: 0.75; stroke: #ffffff; stroke-width: 0.524631; stroke-linejoin: miter"/>
   </g>
   <g id="patch_17">
    <path d="M 198.812076 172.884 
L 204.940924 172.884 
L 204.940924 152.523447 
L 198.812076 152.523447 
z
" clip-path="url(#p802beb7cad)" style="fill: #55a868; fill-opacity: 0.75; stroke: #ffffff; stroke-width: 0.524631; stroke-linejoin: miter"/>
   </g>
   <g id="patch_18">
    <path d="M 226.051402 172.884 
L 232.18025 172.884 
L 232.18025 152.523447 
L 226.051402 152.523447 
z
" clip-path="url(#p802beb7cad)" style="fill: #55a868; fill-opacity: 0.75; stroke: #ffffff; stroke-width: 0.524631; stroke-linejoin: miter"/>
   </g>
   <g id="patch_19">
    <path d="M 253.290728 172.884 
L 259.419576 172.884 
L 259.419576 172.884 
L 253.290728 172.884 
z
" clip-path="url(#p802beb7cad)" style="fill: #55a868; fill-opacity: 0.75; stroke: #ffffff; stroke-width: 0.524631; stroke-linejoin: miter"/>
   </g>
   <g id="patch_20">
    <path d="M 280.530053 172.884 
L 286.658902 172.884 
L 286.658902 172.884 
L 280.530053 172.884 
z
" clip-path="url(#p802beb7cad)" style="fill: #55a868; fill-opacity: 0.75; stroke: #ffffff; stroke-width: 0.524631; stroke-linejoin: miter"/>
   </g>
   <g id="patch_21">
    <path d="M 56.486598 172.884 
L 62.615447 172.884 
L 62.615447 167.793862 
L 56.486598 167.793862 
z
" clip-path="url(#p802beb7cad)" style="fill: #dd8452; fill-opacity: 0.75; stroke: #ffffff; stroke-width: 0.524631; stroke-linejoin: miter"/>
   </g>
   <g id="patch_22">
    <path d="M 83.725924 172.884 
L 89.854772 172.884 
L 89.854772 40.540406 
L 83.725924 40.540406 
z
" clip-path="url(#p802beb7cad)" style="fill: #dd8452; fill-opacity: 0.75; stroke: #ffffff; stroke-width: 0.524631; stroke-linejoin: miter"/>
   </g>
   <g id="patch_23">
    <path d="M 110.96525 172.884 
L 117.094098 172.884 
L 117.094098 45.630544 
L 110.96525 45.630544 
z
" clip-path="url(#p802beb7cad)" style="fill: #dd8452; fill-opacity: 0.75; stroke: #ffffff; stroke-width: 0.524631; stroke-linejoin: miter"/>
   </g>
   <g id="patch_24">
    <path d="M 138.204576 172.884 
L 144.333424 172.884 
L 144.333424 30.360129 
L 138.204576 30.360129 
z
" clip-path="url(#p802beb7cad)" style="fill: #dd8452; fill-opacity: 0.75; stroke: #ffffff; stroke-width: 0.524631; stroke-linejoin: miter"/>
   </g>
   <g id="patch_25">
    <path d="M 165.443902 172.884 
L 171.57275 172.884 
L 171.57275 121.982618 
L 165.443902 121.982618 
z
" clip-path="url(#p802beb7cad)" style="fill: #dd8452; fill-opacity: 0.75; stroke: #ffffff; stroke-width: 0.524631; stroke-linejoin: miter"/>
   </g>
   <g id="patch_26">
    <path d="M 192.683228 172.884 
L 198.812076 172.884 
L 198.812076 167.793862 
L 192.683228 167.793862 
z
" clip-path="url(#p802beb7cad)" style="fill: #dd8452; fill-opacity: 0.75; stroke: #ffffff; stroke-width: 0.524631; stroke-linejoin: miter"/>
   </g>
   <g id="patch_27">
    <path d="M 219.922553 172.884 
L 226.051402 172.884 
L 226.051402 167.793862 
L 219.922553 167.793862 
z
" clip-path="url(#p802beb7cad)" style="fill: #dd8452; fill-opacity: 0.75; stroke: #ffffff; stroke-width: 0.524631; stroke-linejoin: miter"/>
   </g>
   <g id="patch_28">
    <path d="M 247.161879 172.884 
L 253.290728 172.884 
L 253.290728 172.884 
L 247.161879 172.884 
z
" clip-path="url(#p802beb7cad)" style="fill: #dd8452; fill-opacity: 0.75; stroke: #ffffff; stroke-width: 0.524631; stroke-linejoin: miter"/>
   </g>
   <g id="patch_29">
    <path d="M 274.401205 172.884 
L 280.530053 172.884 
L 280.530053 172.884 
L 274.401205 172.884 
z
" clip-path="url(#p802beb7cad)" style="fill: #dd8452; fill-opacity: 0.75; stroke: #ffffff; stroke-width: 0.524631; stroke-linejoin: miter"/>
   </g>
   <g id="patch_30">
    <path d="M 50.35775 172.884 
L 56.486598 172.884 
L 56.486598 147.433309 
L 50.35775 147.433309 
z
" clip-path="url(#p802beb7cad)" style="fill: #4c72b0; fill-opacity: 0.75; stroke: #ffffff; stroke-width: 0.524631; stroke-linejoin: miter"/>
   </g>
   <g id="patch_31">
    <path d="M 77.597076 172.884 
L 83.725924 172.884 
L 83.725924 106.712203 
L 77.597076 106.712203 
z
" clip-path="url(#p802beb7cad)" style="fill: #4c72b0; fill-opacity: 0.75; stroke: #ffffff; stroke-width: 0.524631; stroke-linejoin: miter"/>
   </g>
   <g id="patch_32">
    <path d="M 104.836402 172.884 
L 110.96525 172.884 
L 110.96525 15.089714 
L 104.836402 15.089714 
z
" clip-path="url(#p802beb7cad)" style="fill: #4c72b0; fill-opacity: 0.75; stroke: #ffffff; stroke-width: 0.524631; stroke-linejoin: miter"/>
   </g>
   <g id="patch_33">
    <path d="M 132.075728 172.884 
L 138.204576 172.884 
L 138.204576 91.441788 
L 132.075728 91.441788 
z
" clip-path="url(#p802beb7cad)" style="fill: #4c72b0; fill-opacity: 0.75; stroke: #ffffff; stroke-width: 0.524631; stroke-linejoin: miter"/>
   </g>
   <g id="patch_34">
    <path d="M 159.315053 172.884 
L 165.443902 172.884 
L 165.443902 91.441788 
L 159.315053 91.441788 
z
" clip-path="url(#p802beb7cad)" style="fill: #4c72b0; fill-opacity: 0.75; stroke: #ffffff; stroke-width: 0.524631; stroke-linejoin: miter"/>
   </g>
   <g id="patch_35">
    <path d="M 186.554379 172.884 
L 192.683228 172.884 
L 192.683228 147.433309 
L 186.554379 147.433309 
z
" clip-path="url(#p802beb7cad)" style="fill: #4c72b0; fill-opacity: 0.75; stroke: #ffffff; stroke-width: 0.524631; stroke-linejoin: miter"/>
   </g>
   <g id="patch_36">
    <path d="M 213.793705 172.884 
L 219.922553 172.884 
L 219.922553 152.523447 
L 213.793705 152.523447 
z
" clip-path="url(#p802beb7cad)" style="fill: #4c72b0; fill-opacity: 0.75; stroke: #ffffff; stroke-width: 0.524631; stroke-linejoin: miter"/>
   </g>
   <g id="patch_37">
    <path d="M 241.033031 172.884 
L 247.161879 172.884 
L 247.161879 172.884 
L 241.033031 172.884 
z
" clip-path="url(#p802beb7cad)" style="fill: #4c72b0; fill-opacity: 0.75; stroke: #ffffff; stroke-width: 0.524631; stroke-linejoin: miter"/>
   </g>
   <g id="patch_38">
    <path d="M 268.272357 172.884 
L 274.401205 172.884 
L 274.401205 167.793862 
L 268.272357 167.793862 
z
" clip-path="url(#p802beb7cad)" style="fill: #4c72b0; fill-opacity: 0.75; stroke: #ffffff; stroke-width: 0.524631; stroke-linejoin: miter"/>
   </g>
   <g id="patch_39">
    <path d="M 38.23625 172.884 
L 38.23625 7.2 
" style="fill: none; stroke: #cccccc; stroke-linejoin: miter; stroke-linecap: square"/>
   </g>
   <g id="patch_40">
    <path d="M 304.90925 172.884 
L 304.90925 7.2 
" style="fill: none; stroke: #cccccc; stroke-linejoin: miter; stroke-linecap: square"/>
   </g>
   <g id="patch_41">
    <path d="M 38.23625 172.884 
L 304.90925 172.884 
" style="fill: none; stroke: #cccccc; stroke-linejoin: miter; stroke-linecap: square"/>
   </g>
   <g id="patch_42">
    <path d="M 38.23625 7.2 
L 304.90925 7.2 
" style="fill: none; stroke: #cccccc; stroke-linejoin: miter; stroke-linecap: square"/>
   </g>
   <g id="legend_1">
    <g id="patch_43">
     <path d="M 238.811625 78.002 
L 298.74925 78.002 
Q 300.50925 78.002 300.50925 76.242 
L 300.50925 13.36 
Q 300.50925 11.6 298.74925 11.6 
L 238.811625 11.6 
Q 237.051625 11.6 237.051625 13.36 
L 237.051625 76.242 
Q 237.051625 78.002 238.811625 78.002 
z
" style="fill: #ffffff; opacity: 0.8; stroke: #cccccc; stroke-width: 0.8; stroke-linejoin: miter"/>
    </g>
    <g id="text_18">
     <!-- Season -->
     <g style="fill: #262626" transform="translate(252.501687 22.077) scale(0.096 -0.096)">
      <defs>
       <path id="Arimo-53" d="M 3975 1216 
Q 3975 606 3498 271 
Q 3022 -63 2156 -63 
Q 547 -63 291 1056 
L 869 1172 
Q 969 775 1294 589 
Q 1619 403 2178 403 
Q 2756 403 3070 601 
Q 3384 800 3384 1184 
Q 3384 1400 3286 1534 
Q 3188 1669 3009 1756 
Q 2831 1844 2584 1903 
Q 2338 1963 2038 2031 
Q 1516 2147 1245 2262 
Q 975 2378 819 2520 
Q 663 2663 580 2853 
Q 497 3044 497 3291 
Q 497 3856 930 4162 
Q 1363 4469 2169 4469 
Q 2919 4469 3316 4239 
Q 3713 4009 3872 3456 
L 3284 3353 
Q 3188 3703 2916 3861 
Q 2644 4019 2163 4019 
Q 1634 4019 1356 3844 
Q 1078 3669 1078 3322 
Q 1078 3119 1186 2986 
Q 1294 2853 1497 2761 
Q 1700 2669 2306 2534 
Q 2509 2488 2711 2439 
Q 2913 2391 3097 2323 
Q 3281 2256 3442 2165 
Q 3603 2075 3722 1944 
Q 3841 1813 3908 1634 
Q 3975 1456 3975 1216 
z
" transform="scale(0.015625)"/>
      </defs>
      <use xlink:href="#Arimo-53"/>
      <use xlink:href="#Arimo-65" x="66.699219"/>
      <use xlink:href="#Arimo-61" x="122.314453"/>
      <use xlink:href="#Arimo-73" x="177.929688"/>
      <use xlink:href="#Arimo-6f" x="227.929688"/>
      <use xlink:href="#Arimo-6e" x="283.544922"/>
     </g>
    </g>
    <g id="patch_44">
     <path d="M 240.571625 34.84625 
L 258.171625 34.84625 
L 258.171625 28.68625 
L 240.571625 28.68625 
z
" style="fill: #4c72b0; fill-opacity: 0.75; stroke: #ffffff; stroke-width: 0.8; stroke-linejoin: miter"/>
    </g>
    <g id="text_19">
     <!-- winter -->
     <g style="fill: #262626" transform="translate(265.211625 34.84625) scale(0.088 -0.088)">
      <defs>
       <path id="Arimo-77" d="M 3669 0 
L 3016 0 
L 2425 2391 
L 2313 2919 
Q 2284 2778 2225 2514 
Q 2166 2250 1588 0 
L 938 0 
L -9 3381 
L 547 3381 
L 1119 1084 
Q 1141 1009 1253 466 
L 1306 697 
L 2013 3381 
L 2616 3381 
L 3206 1059 
L 3350 466 
L 3447 900 
L 4088 3381 
L 4638 3381 
L 3669 0 
z
" transform="scale(0.015625)"/>
      </defs>
      <use xlink:href="#Arimo-77"/>
      <use xlink:href="#Arimo-69" x="72.216797"/>
      <use xlink:href="#Arimo-6e" x="94.433594"/>
      <use xlink:href="#Arimo-74" x="150.048828"/>
      <use xlink:href="#Arimo-65" x="177.832031"/>
      <use xlink:href="#Arimo-72" x="233.447266"/>
     </g>
    </g>
    <g id="patch_45">
     <path d="M 240.571625 47.4495 
L 258.171625 47.4495 
L 258.171625 41.2895 
L 240.571625 41.2895 
z
" style="fill: #dd8452; fill-opacity: 0.75; stroke: #ffffff; stroke-width: 0.8; stroke-linejoin: miter"/>
    </g>
    <g id="text_20">
     <!-- spring -->
     <g style="fill: #262626" transform="translate(265.211625 47.4495) scale(0.088 -0.088)">
      <defs>
       <path id="Arimo-70" d="M 3291 1706 
Q 3291 -63 2047 -63 
Q 1266 -63 997 525 
L 981 525 
Q 994 500 994 -6 
L 994 -1328 
L 431 -1328 
L 431 2691 
Q 431 3213 413 3381 
L 956 3381 
Q 959 3369 965 3292 
Q 972 3216 980 3056 
Q 988 2897 988 2838 
L 1000 2838 
Q 1150 3150 1397 3295 
Q 1644 3441 2047 3441 
Q 2672 3441 2981 3022 
Q 3291 2603 3291 1706 
z
M 2700 1694 
Q 2700 2400 2509 2703 
Q 2319 3006 1903 3006 
Q 1569 3006 1380 2865 
Q 1191 2725 1092 2426 
Q 994 2128 994 1650 
Q 994 984 1206 668 
Q 1419 353 1897 353 
Q 2316 353 2508 661 
Q 2700 969 2700 1694 
z
" transform="scale(0.015625)"/>
       <path id="Arimo-67" d="M 1713 -1328 
Q 1159 -1328 831 -1111 
Q 503 -894 409 -494 
L 975 -413 
Q 1031 -647 1223 -773 
Q 1416 -900 1728 -900 
Q 2569 -900 2569 84 
L 2569 628 
L 2563 628 
Q 2403 303 2125 139 
Q 1847 -25 1475 -25 
Q 853 -25 561 387 
Q 269 800 269 1684 
Q 269 2581 583 3007 
Q 897 3434 1538 3434 
Q 1897 3434 2161 3270 
Q 2425 3106 2569 2803 
L 2575 2803 
Q 2575 2897 2587 3128 
Q 2600 3359 2613 3381 
L 3147 3381 
Q 3128 3213 3128 2681 
L 3128 97 
Q 3128 -1328 1713 -1328 
z
M 2569 1691 
Q 2569 2103 2456 2401 
Q 2344 2700 2139 2858 
Q 1934 3016 1675 3016 
Q 1244 3016 1047 2703 
Q 850 2391 850 1691 
Q 850 997 1034 694 
Q 1219 391 1666 391 
Q 1931 391 2137 547 
Q 2344 703 2456 995 
Q 2569 1288 2569 1691 
z
" transform="scale(0.015625)"/>
      </defs>
      <use xlink:href="#Arimo-73"/>
      <use xlink:href="#Arimo-70" x="50"/>
      <use xlink:href="#Arimo-72" x="105.615234"/>
      <use xlink:href="#Arimo-69" x="138.916016"/>
      <use xlink:href="#Arimo-6e" x="161.132812"/>
      <use xlink:href="#Arimo-67" x="216.748047"/>
     </g>
    </g>
    <g id="patch_46">
     <path d="M 240.571625 60.05275 
L 258.171625 60.05275 
L 258.171625 53.89275 
L 240.571625 53.89275 
z
" style="fill: #55a868; fill-opacity: 0.75; stroke: #ffffff; stroke-width: 0.8; stroke-linejoin: miter"/>
    </g>
    <g id="text_21">
     <!-- summer -->
     <g style="fill: #262626" transform="translate(265.211625 60.05275) scale(0.088 -0.088)">
      <defs>
       <path id="Arimo-6d" d="M 2400 0 
L 2400 2144 
Q 2400 2634 2265 2821 
Q 2131 3009 1781 3009 
Q 1422 3009 1212 2734 
Q 1003 2459 1003 1959 
L 1003 0 
L 444 0 
L 444 2659 
Q 444 3250 425 3381 
L 956 3381 
Q 959 3366 962 3297 
Q 966 3228 970 3139 
Q 975 3050 981 2803 
L 991 2803 
Q 1172 3163 1406 3303 
Q 1641 3444 1978 3444 
Q 2363 3444 2586 3291 
Q 2809 3138 2897 2803 
L 2906 2803 
Q 3081 3144 3329 3294 
Q 3578 3444 3931 3444 
Q 4444 3444 4676 3166 
Q 4909 2888 4909 2253 
L 4909 0 
L 4353 0 
L 4353 2144 
Q 4353 2634 4218 2821 
Q 4084 3009 3734 3009 
Q 3366 3009 3161 2736 
Q 2956 2463 2956 1959 
L 2956 0 
L 2400 0 
z
" transform="scale(0.015625)"/>
      </defs>
      <use xlink:href="#Arimo-73"/>
      <use xlink:href="#Arimo-75" x="50"/>
      <use xlink:href="#Arimo-6d" x="105.615234"/>
      <use xlink:href="#Arimo-6d" x="188.916016"/>
      <use xlink:href="#Arimo-65" x="272.216797"/>
      <use xlink:href="#Arimo-72" x="327.832031"/>
     </g>
    </g>
    <g id="patch_47">
     <path d="M 240.571625 72.656 
L 258.171625 72.656 
L 258.171625 66.496 
L 240.571625 66.496 
z
" style="fill: #c44e52; fill-opacity: 0.75; stroke: #ffffff; stroke-width: 0.8; stroke-linejoin: miter"/>
    </g>
    <g id="text_22">
     <!-- autumn -->
     <g style="fill: #262626" transform="translate(265.211625 72.656) scale(0.088 -0.088)">
      <use xlink:href="#Arimo-61"/>
      <use xlink:href="#Arimo-75" x="55.615234"/>
      <use xlink:href="#Arimo-74" x="111.230469"/>
      <use xlink:href="#Arimo-75" x="139.013672"/>
      <use xlink:href="#Arimo-6d" x="194.628906"/>
      <use xlink:href="#Arimo-6e" x="277.929688"/>
     </g>
    </g>
   </g>
  </g>
  <g id="axes_2">
   <g id="patch_48">
    <path d="M 368.07725 172.884 
L 634.75025 172.884 
L 634.75025 7.2 
L 368.07725 7.2 
z
" style="fill: #ffffff"/>
   </g>
   <g id="matplotlib.axis_3">
    <g id="xtick_9">
     <g id="line2d_16">
      <path d="M 380.19875 172.884 
L 380.19875 7.2 
" clip-path="url(#p9757b9f574)" style="fill: none; stroke: #cccccc; stroke-width: 0.8; stroke-linecap: round"/>
     </g>
     <g id="text_23">
      <!-- 0.0 -->
      <g style="fill: #262626" transform="translate(374.08275 187.56125) scale(0.088 -0.088)">
       <use xlink:href="#Arimo-30"/>
       <use xlink:href="#Arimo-2e" x="55.615234"/>
       <use xlink:href="#Arimo-30" x="83.398438"/>
      </g>
     </g>
    </g>
    <g id="xtick_10">
     <g id="line2d_17">
      <path d="M 413.869583 172.884 
L 413.869583 7.2 
" clip-path="url(#p9757b9f574)" style="fill: none; stroke: #cccccc; stroke-width: 0.8; stroke-linecap: round"/>
     </g>
     <g id="text_24">
      <!-- 2.5 -->
      <g style="fill: #262626" transform="translate(407.753583 187.56125) scale(0.088 -0.088)">
       <use xlink:href="#Arimo-32"/>
       <use xlink:href="#Arimo-2e" x="55.615234"/>
       <use xlink:href="#Arimo-35" x="83.398438"/>
      </g>
     </g>
    </g>
    <g id="xtick_11">
     <g id="line2d_18">
      <path d="M 447.540417 172.884 
L 447.540417 7.2 
" clip-path="url(#p9757b9f574)" style="fill: none; stroke: #cccccc; stroke-width: 0.8; stroke-linecap: round"/>
     </g>
     <g id="text_25">
      <!-- 5.0 -->
      <g style="fill: #262626" transform="translate(441.424417 187.56125) scale(0.088 -0.088)">
       <use xlink:href="#Arimo-35"/>
       <use xlink:href="#Arimo-2e" x="55.615234"/>
       <use xlink:href="#Arimo-30" x="83.398438"/>
      </g>
     </g>
    </g>
    <g id="xtick_12">
     <g id="line2d_19">
      <path d="M 481.21125 172.884 
L 481.21125 7.2 
" clip-path="url(#p9757b9f574)" style="fill: none; stroke: #cccccc; stroke-width: 0.8; stroke-linecap: round"/>
     </g>
     <g id="text_26">
      <!-- 7.5 -->
      <g style="fill: #262626" transform="translate(475.09525 187.56125) scale(0.088 -0.088)">
       <use xlink:href="#Arimo-37"/>
       <use xlink:href="#Arimo-2e" x="55.615234"/>
       <use xlink:href="#Arimo-35" x="83.398438"/>
      </g>
     </g>
    </g>
    <g id="xtick_13">
     <g id="line2d_20">
      <path d="M 514.882083 172.884 
L 514.882083 7.2 
" clip-path="url(#p9757b9f574)" style="fill: none; stroke: #cccccc; stroke-width: 0.8; stroke-linecap: round"/>
     </g>
     <g id="text_27">
      <!-- 10.0 -->
      <g style="fill: #262626" transform="translate(506.319271 187.56125) scale(0.088 -0.088)">
       <use xlink:href="#Arimo-31"/>
       <use xlink:href="#Arimo-30" x="55.615234"/>
       <use xlink:href="#Arimo-2e" x="111.230469"/>
       <use xlink:href="#Arimo-30" x="139.013672"/>
      </g>
     </g>
    </g>
    <g id="xtick_14">
     <g id="line2d_21">
      <path d="M 548.552917 172.884 
L 548.552917 7.2 
" clip-path="url(#p9757b9f574)" style="fill: none; stroke: #cccccc; stroke-width: 0.8; stroke-linecap: round"/>
     </g>
     <g id="text_28">
      <!-- 12.5 -->
      <g style="fill: #262626" transform="translate(539.990104 187.56125) scale(0.088 -0.088)">
       <use xlink:href="#Arimo-31"/>
       <use xlink:href="#Arimo-32" x="55.615234"/>
       <use xlink:href="#Arimo-2e" x="111.230469"/>
       <use xlink:href="#Arimo-35" x="139.013672"/>
      </g>
     </g>
    </g>
    <g id="xtick_15">
     <g id="line2d_22">
      <path d="M 582.22375 172.884 
L 582.22375 7.2 
" clip-path="url(#p9757b9f574)" style="fill: none; stroke: #cccccc; stroke-width: 0.8; stroke-linecap: round"/>
     </g>
     <g id="text_29">
      <!-- 15.0 -->
      <g style="fill: #262626" transform="translate(573.660938 187.56125) scale(0.088 -0.088)">
       <use xlink:href="#Arimo-31"/>
       <use xlink:href="#Arimo-35" x="55.615234"/>
       <use xlink:href="#Arimo-2e" x="111.230469"/>
       <use xlink:href="#Arimo-30" x="139.013672"/>
      </g>
     </g>
    </g>
    <g id="xtick_16">
     <g id="line2d_23">
      <path d="M 615.894583 172.884 
L 615.894583 7.2 
" clip-path="url(#p9757b9f574)" style="fill: none; stroke: #cccccc; stroke-width: 0.8; stroke-linecap: round"/>
     </g>
     <g id="text_30">
      <!-- 17.5 -->
      <g style="fill: #262626" transform="translate(607.331771 187.56125) scale(0.088 -0.088)">
       <use xlink:href="#Arimo-31"/>
       <use xlink:href="#Arimo-37" x="55.615234"/>
       <use xlink:href="#Arimo-2e" x="111.230469"/>
       <use xlink:href="#Arimo-35" x="139.013672"/>
      </g>
     </g>
    </g>
    <g id="text_31">
     <!-- Fire-related incidents (3 day interval) -->
     <g style="fill: #262626" transform="translate(423.52025 200.34425) scale(0.096 -0.096)">
      <use xlink:href="#Arimo-46"/>
      <use xlink:href="#Arimo-69" x="61.083984"/>
      <use xlink:href="#Arimo-72" x="83.300781"/>
      <use xlink:href="#Arimo-65" x="116.601562"/>
      <use xlink:href="#Arimo-2d" x="172.216797"/>
      <use xlink:href="#Arimo-72" x="205.517578"/>
      <use xlink:href="#Arimo-65" x="238.818359"/>
      <use xlink:href="#Arimo-6c" x="294.433594"/>
      <use xlink:href="#Arimo-61" x="316.650391"/>
      <use xlink:href="#Arimo-74" x="372.265625"/>
      <use xlink:href="#Arimo-65" x="400.048828"/>
      <use xlink:href="#Arimo-64" x="455.664062"/>
      <use xlink:href="#Arimo-20" x="511.279297"/>
      <use xlink:href="#Arimo-69" x="539.0625"/>
      <use xlink:href="#Arimo-6e" x="561.279297"/>
      <use xlink:href="#Arimo-63" x="616.894531"/>
      <use xlink:href="#Arimo-69" x="666.894531"/>
      <use xlink:href="#Arimo-64" x="689.111328"/>
      <use xlink:href="#Arimo-65" x="744.726562"/>
      <use xlink:href="#Arimo-6e" x="800.341797"/>
      <use xlink:href="#Arimo-74" x="855.957031"/>
      <use xlink:href="#Arimo-73" x="883.740234"/>
      <use xlink:href="#Arimo-20" x="933.740234"/>
      <use xlink:href="#Arimo-28" x="961.523438"/>
      <use xlink:href="#Arimo-33" x="994.824219"/>
      <use xlink:href="#Arimo-20" x="1050.439453"/>
      <use xlink:href="#Arimo-64" x="1078.222656"/>
      <use xlink:href="#Arimo-61" x="1133.837891"/>
      <use xlink:href="#Arimo-79" x="1189.453125"/>
      <use xlink:href="#Arimo-20" x="1239.453125"/>
      <use xlink:href="#Arimo-69" x="1267.236328"/>
      <use xlink:href="#Arimo-6e" x="1289.453125"/>
      <use xlink:href="#Arimo-74" x="1345.068359"/>
      <use xlink:href="#Arimo-65" x="1372.851562"/>
      <use xlink:href="#Arimo-72" x="1428.466797"/>
      <use xlink:href="#Arimo-76" x="1461.767578"/>
      <use xlink:href="#Arimo-61" x="1511.767578"/>
      <use xlink:href="#Arimo-6c" x="1567.382812"/>
      <use xlink:href="#Arimo-29" x="1589.599609"/>
     </g>
    </g>
   </g>
   <g id="matplotlib.axis_4">
    <g id="ytick_8">
     <g id="text_32">
      <!-- winter -->
      <g style="fill: #262626" transform="translate(336.304625 31.099125) scale(0.088 -0.088)">
       <use xlink:href="#Arimo-77"/>
       <use xlink:href="#Arimo-69" x="72.216797"/>
       <use xlink:href="#Arimo-6e" x="94.433594"/>
       <use xlink:href="#Arimo-74" x="150.048828"/>
       <use xlink:href="#Arimo-65" x="177.832031"/>
       <use xlink:href="#Arimo-72" x="233.447266"/>
      </g>
     </g>
    </g>
    <g id="ytick_9">
     <g id="text_33">
      <!-- spring -->
      <g style="fill: #262626" transform="translate(335.811 72.520125) scale(0.088 -0.088)">
       <use xlink:href="#Arimo-73"/>
       <use xlink:href="#Arimo-70" x="50"/>
       <use xlink:href="#Arimo-72" x="105.615234"/>
       <use xlink:href="#Arimo-69" x="138.916016"/>
       <use xlink:href="#Arimo-6e" x="161.132812"/>
       <use xlink:href="#Arimo-67" x="216.748047"/>
      </g>
     </g>
    </g>
    <g id="ytick_10">
     <g id="text_34">
      <!-- summer -->
      <g style="fill: #262626" transform="translate(327.999625 113.941125) scale(0.088 -0.088)">
       <use xlink:href="#Arimo-73"/>
       <use xlink:href="#Arimo-75" x="50"/>
       <use xlink:href="#Arimo-6d" x="105.615234"/>
       <use xlink:href="#Arimo-6d" x="188.916016"/>
       <use xlink:href="#Arimo-65" x="272.216797"/>
       <use xlink:href="#Arimo-72" x="327.832031"/>
      </g>
     </g>
    </g>
    <g id="ytick_11">
     <g id="text_35">
      <!-- autumn -->
      <g style="fill: #262626" transform="translate(330.427875 155.362125) scale(0.088 -0.088)">
       <use xlink:href="#Arimo-61"/>
       <use xlink:href="#Arimo-75" x="55.615234"/>
       <use xlink:href="#Arimo-74" x="111.230469"/>
       <use xlink:href="#Arimo-75" x="139.013672"/>
       <use xlink:href="#Arimo-6d" x="194.628906"/>
       <use xlink:href="#Arimo-6e" x="277.929688"/>
      </g>
     </g>
    </g>
    <g id="text_36">
     <!-- Season -->
     <g style="fill: #262626" transform="translate(322.007625 106.32075) rotate(-90) scale(0.096 -0.096)">
      <use xlink:href="#Arimo-53"/>
      <use xlink:href="#Arimo-65" x="66.699219"/>
      <use xlink:href="#Arimo-61" x="122.314453"/>
      <use xlink:href="#Arimo-73" x="177.929688"/>
      <use xlink:href="#Arimo-6f" x="227.929688"/>
      <use xlink:href="#Arimo-6e" x="283.544922"/>
     </g>
    </g>
   </g>
   <g id="patch_49">
    <path d="M 434.072083 11.3421 
L 434.072083 44.4789 
L 487.945417 44.4789 
L 487.945417 11.3421 
L 434.072083 11.3421 
z
" clip-path="url(#p9757b9f574)" style="fill: #5875a4; stroke: #4c4c4c; stroke-width: 1.2; stroke-linejoin: miter"/>
   </g>
   <g id="patch_50">
    <path d="M 420.60375 52.7631 
L 420.60375 85.8999 
L 474.477083 85.8999 
L 474.477083 52.7631 
L 420.60375 52.7631 
z
" clip-path="url(#p9757b9f574)" style="fill: #cc8963; stroke: #4c4c4c; stroke-width: 1.2; stroke-linejoin: miter"/>
   </g>
   <g id="patch_51">
    <path d="M 434.072083 94.1841 
L 434.072083 127.3209 
L 487.945417 127.3209 
L 487.945417 94.1841 
L 434.072083 94.1841 
z
" clip-path="url(#p9757b9f574)" style="fill: #5f9e6e; stroke: #4c4c4c; stroke-width: 1.2; stroke-linejoin: miter"/>
   </g>
   <g id="patch_52">
    <path d="M 420.60375 135.6051 
L 420.60375 168.7419 
L 467.742917 168.7419 
L 467.742917 135.6051 
L 420.60375 135.6051 
z
" clip-path="url(#p9757b9f574)" style="fill: #b55d60; stroke: #4c4c4c; stroke-width: 1.2; stroke-linejoin: miter"/>
   </g>
   <g id="line2d_24">
    <path d="M 434.072083 27.9105 
L 393.667083 27.9105 
" clip-path="url(#p9757b9f574)" style="fill: none; stroke: #4c4c4c; stroke-width: 1.2; stroke-linecap: round"/>
   </g>
   <g id="line2d_25">
    <path d="M 487.945417 27.9105 
L 555.287083 27.9105 
" clip-path="url(#p9757b9f574)" style="fill: none; stroke: #4c4c4c; stroke-width: 1.2; stroke-linecap: round"/>
   </g>
   <g id="line2d_26">
    <path d="M 393.667083 19.6263 
L 393.667083 36.1947 
" clip-path="url(#p9757b9f574)" style="fill: none; stroke: #4c4c4c; stroke-width: 1.2; stroke-linecap: round"/>
   </g>
   <g id="line2d_27">
    <path d="M 555.287083 19.6263 
L 555.287083 36.1947 
" clip-path="url(#p9757b9f574)" style="fill: none; stroke: #4c4c4c; stroke-width: 1.2; stroke-linecap: round"/>
   </g>
   <g id="line2d_28">
    <defs>
     <path id="m053c5997fd" d="M -0 3.535534 
L 2.12132 0 
L -0 -3.535534 
L -2.12132 -0 
z
" style="stroke: #4c4c4c; stroke-linejoin: miter"/>
    </defs>
    <g clip-path="url(#p9757b9f574)">
     <use xlink:href="#m053c5997fd" x="622.62875" y="27.9105" style="fill: #4c4c4c; stroke: #4c4c4c; stroke-linejoin: miter"/>
    </g>
   </g>
   <g id="line2d_29">
    <path d="M 420.60375 69.3315 
L 393.667083 69.3315 
" clip-path="url(#p9757b9f574)" style="fill: none; stroke: #4c4c4c; stroke-width: 1.2; stroke-linecap: round"/>
   </g>
   <g id="line2d_30">
    <path d="M 474.477083 69.3315 
L 555.287083 69.3315 
" clip-path="url(#p9757b9f574)" style="fill: none; stroke: #4c4c4c; stroke-width: 1.2; stroke-linecap: round"/>
   </g>
   <g id="line2d_31">
    <path d="M 393.667083 61.0473 
L 393.667083 77.6157 
" clip-path="url(#p9757b9f574)" style="fill: none; stroke: #4c4c4c; stroke-width: 1.2; stroke-linecap: round"/>
   </g>
   <g id="line2d_32">
    <path d="M 555.287083 61.0473 
L 555.287083 77.6157 
" clip-path="url(#p9757b9f574)" style="fill: none; stroke: #4c4c4c; stroke-width: 1.2; stroke-linecap: round"/>
   </g>
   <g id="line2d_33"/>
   <g id="line2d_34">
    <path d="M 434.072083 110.7525 
L 380.19875 110.7525 
" clip-path="url(#p9757b9f574)" style="fill: none; stroke: #4c4c4c; stroke-width: 1.2; stroke-linecap: round"/>
   </g>
   <g id="line2d_35">
    <path d="M 487.945417 110.7525 
L 555.287083 110.7525 
" clip-path="url(#p9757b9f574)" style="fill: none; stroke: #4c4c4c; stroke-width: 1.2; stroke-linecap: round"/>
   </g>
   <g id="line2d_36">
    <path d="M 380.19875 102.4683 
L 380.19875 119.0367 
" clip-path="url(#p9757b9f574)" style="fill: none; stroke: #4c4c4c; stroke-width: 1.2; stroke-linecap: round"/>
   </g>
   <g id="line2d_37">
    <path d="M 555.287083 102.4683 
L 555.287083 119.0367 
" clip-path="url(#p9757b9f574)" style="fill: none; stroke: #4c4c4c; stroke-width: 1.2; stroke-linecap: round"/>
   </g>
   <g id="line2d_38"/>
   <g id="line2d_39">
    <path d="M 420.60375 152.1735 
L 407.135417 152.1735 
" clip-path="url(#p9757b9f574)" style="fill: none; stroke: #4c4c4c; stroke-width: 1.2; stroke-linecap: round"/>
   </g>
   <g id="line2d_40">
    <path d="M 467.742917 152.1735 
L 514.882083 152.1735 
" clip-path="url(#p9757b9f574)" style="fill: none; stroke: #4c4c4c; stroke-width: 1.2; stroke-linecap: round"/>
   </g>
   <g id="line2d_41">
    <path d="M 407.135417 143.8893 
L 407.135417 160.4577 
" clip-path="url(#p9757b9f574)" style="fill: none; stroke: #4c4c4c; stroke-width: 1.2; stroke-linecap: round"/>
   </g>
   <g id="line2d_42">
    <path d="M 514.882083 143.8893 
L 514.882083 160.4577 
" clip-path="url(#p9757b9f574)" style="fill: none; stroke: #4c4c4c; stroke-width: 1.2; stroke-linecap: round"/>
   </g>
   <g id="line2d_43"/>
   <g id="line2d_44">
    <path d="M 447.540417 11.3421 
L 447.540417 44.4789 
" clip-path="url(#p9757b9f574)" style="fill: none; stroke: #4c4c4c; stroke-width: 1.2; stroke-linecap: round"/>
   </g>
   <g id="line2d_45">
    <path d="M 447.540417 52.7631 
L 447.540417 85.8999 
" clip-path="url(#p9757b9f574)" style="fill: none; stroke: #4c4c4c; stroke-width: 1.2; stroke-linecap: round"/>
   </g>
   <g id="line2d_46">
    <path d="M 454.274583 94.1841 
L 454.274583 127.3209 
" clip-path="url(#p9757b9f574)" style="fill: none; stroke: #4c4c4c; stroke-width: 1.2; stroke-linecap: round"/>
   </g>
   <g id="line2d_47">
    <path d="M 447.540417 135.6051 
L 447.540417 168.7419 
" clip-path="url(#p9757b9f574)" style="fill: none; stroke: #4c4c4c; stroke-width: 1.2; stroke-linecap: round"/>
   </g>
   <g id="patch_53">
    <path d="M 368.07725 172.884 
L 368.07725 7.2 
" style="fill: none; stroke: #cccccc; stroke-linejoin: miter; stroke-linecap: square"/>
   </g>
   <g id="patch_54">
    <path d="M 634.75025 172.884 
L 634.75025 7.2 
" style="fill: none; stroke: #cccccc; stroke-linejoin: miter; stroke-linecap: square"/>
   </g>
   <g id="patch_55">
    <path d="M 368.07725 172.884 
L 634.75025 172.884 
" style="fill: none; stroke: #cccccc; stroke-linejoin: miter; stroke-linecap: square"/>
   </g>
   <g id="patch_56">
    <path d="M 368.07725 7.2 
L 634.75025 7.2 
" style="fill: none; stroke: #cccccc; stroke-linejoin: miter; stroke-linecap: square"/>
   </g>
  </g>
 </g>
 <defs>
  <clipPath id="p802beb7cad">
   <rect x="38.23625" y="7.2" width="266.673" height="165.684"/>
  </clipPath>
  <clipPath id="p9757b9f574">
   <rect x="368.07725" y="7.2" width="266.673" height="165.684"/>
  </clipPath>
 </defs>
</svg>
