<?xml version="1.0" encoding="utf-8" standalone="no"?>
<!DOCTYPE svg PUBLIC "-//W3C//DTD SVG 1.1//EN"
  "http://www.w3.org/Graphics/SVG/1.1/DTD/svg11.dtd">
<svg xmlns:xlink="http://www.w3.org/1999/xlink" width="301.429875pt" height="210.339844pt" viewBox="0 0 301.429875 210.339844" xmlns="http://www.w3.org/2000/svg" version="1.1">
 <metadata>
  <rdf:RDF xmlns:dc="http://purl.org/dc/elements/1.1/" xmlns:cc="http://creativecommons.org/ns#" xmlns:rdf="http://www.w3.org/1999/02/22-rdf-syntax-ns#">
   <cc:Work>
    <dc:type rdf:resource="http://purl.org/dc/dcmitype/StillImage"/>
    <dc:date>2024-12-06T23:37:43.227518</dc:date>
    <dc:format>image/svg+xml</dc:format>
    <dc:creator>
     <cc:Agent>
      <dc:title>Matplotlib v3.7.1, https://matplotlib.org/</dc:title>
     </cc:Agent>
    </dc:creator>
   </cc:Work>
  </rdf:RDF>
 </metadata>
 <defs>
  <style type="text/css">*{stroke-linejoin: round; stroke-linecap: butt}</style>
 </defs>
 <g id="figure_1">
  <g id="patch_1">
   <path d="M 0 210.339844 
L 301.429875 210.339844 
L 301.429875 0 
L 0 0 
z
" style="fill: #f8f9fa"/>
  </g>
  <g id="axes_1">
   <g id="patch_2">
    <path d="M 43.129875 173.687594 
L 294.229875 173.687594 
L 294.229875 7.367594 
L 43.129875 7.367594 
z
" style="fill: #ffffff"/>
   </g>
   <g id="matplotlib.axis_1">
    <g id="xtick_1">
     <g id="line2d_1">
      <path d="M 53.969962 173.687594 
L 53.969962 7.367594 
" clip-path="url(#pca2333d78d)" style="fill: none; stroke: #cccccc; stroke-width: 0.8; stroke-linecap: round"/>
     </g>
     <g id="text_1">
      <!-- 0 -->
      <g style="fill: #262626" transform="translate(51.523149 188.364844) scale(0.088 -0.088)">
       <defs>
        <path id="Arimo-30" d="M 3309 2203 
Q 3309 1100 2920 518 
Q 2531 -63 1772 -63 
Q 1013 -63 631 515 
Q 250 1094 250 2203 
Q 250 3338 620 3903 
Q 991 4469 1791 4469 
Q 2569 4469 2939 3897 
Q 3309 3325 3309 2203 
z
M 2738 2203 
Q 2738 3156 2517 3584 
Q 2297 4013 1791 4013 
Q 1272 4013 1045 3591 
Q 819 3169 819 2203 
Q 819 1266 1048 831 
Q 1278 397 1778 397 
Q 2275 397 2506 840 
Q 2738 1284 2738 2203 
z
" transform="scale(0.015625)"/>
       </defs>
       <use xlink:href="#Arimo-30"/>
      </g>
     </g>
    </g>
    <g id="xtick_2">
     <g id="line2d_2">
      <path d="M 92.2066 173.687594 
L 92.2066 7.367594 
" clip-path="url(#pca2333d78d)" style="fill: none; stroke: #cccccc; stroke-width: 0.8; stroke-linecap: round"/>
     </g>
     <g id="text_2">
      <!-- 10 -->
      <g style="fill: #262626" transform="translate(87.312975 188.364844) scale(0.088 -0.088)">
       <defs>
        <path id="Arimo-31" d="M 488 0 
L 488 478 
L 1609 478 
L 1609 3866 
L 616 3156 
L 616 3688 
L 1656 4403 
L 2175 4403 
L 2175 478 
L 3247 478 
L 3247 0 
L 488 0 
z
" transform="scale(0.015625)"/>
       </defs>
       <use xlink:href="#Arimo-31"/>
       <use xlink:href="#Arimo-30" x="55.615234"/>
      </g>
     </g>
    </g>
    <g id="xtick_3">
     <g id="line2d_3">
      <path d="M 130.443237 173.687594 
L 130.443237 7.367594 
" clip-path="url(#pca2333d78d)" style="fill: none; stroke: #cccccc; stroke-width: 0.8; stroke-linecap: round"/>
     </g>
     <g id="text_3">
      <!-- 20 -->
      <g style="fill: #262626" transform="translate(125.549612 188.364844) scale(0.088 -0.088)">
       <defs>
        <path id="Arimo-32" d="M 322 0 
L 322 397 
Q 481 763 711 1042 
Q 941 1322 1194 1548 
Q 1447 1775 1695 1969 
Q 1944 2163 2144 2356 
Q 2344 2550 2467 2762 
Q 2591 2975 2591 3244 
Q 2591 3606 2378 3806 
Q 2166 4006 1788 4006 
Q 1428 4006 1195 3811 
Q 963 3616 922 3263 
L 347 3316 
Q 409 3844 795 4156 
Q 1181 4469 1788 4469 
Q 2453 4469 2811 4155 
Q 3169 3841 3169 3263 
Q 3169 3006 3051 2753 
Q 2934 2500 2703 2247 
Q 2472 1994 1819 1463 
Q 1459 1169 1246 933 
Q 1034 697 941 478 
L 3238 478 
L 3238 0 
L 322 0 
z
" transform="scale(0.015625)"/>
       </defs>
       <use xlink:href="#Arimo-32"/>
       <use xlink:href="#Arimo-30" x="55.615234"/>
      </g>
     </g>
    </g>
    <g id="xtick_4">
     <g id="line2d_4">
      <path d="M 168.679875 173.687594 
L 168.679875 7.367594 
" clip-path="url(#pca2333d78d)" style="fill: none; stroke: #cccccc; stroke-width: 0.8; stroke-linecap: round"/>
     </g>
     <g id="text_4">
      <!-- 30 -->
      <g style="fill: #262626" transform="translate(163.78625 188.364844) scale(0.088 -0.088)">
       <defs>
        <path id="Arimo-33" d="M 3278 1216 
Q 3278 606 2890 271 
Q 2503 -63 1784 -63 
Q 1116 -63 717 239 
Q 319 541 244 1131 
L 825 1184 
Q 938 403 1784 403 
Q 2209 403 2451 612 
Q 2694 822 2694 1234 
Q 2694 1594 2417 1795 
Q 2141 1997 1619 1997 
L 1300 1997 
L 1300 2484 
L 1606 2484 
Q 2069 2484 2323 2686 
Q 2578 2888 2578 3244 
Q 2578 3597 2370 3801 
Q 2163 4006 1753 4006 
Q 1381 4006 1151 3815 
Q 922 3625 884 3278 
L 319 3322 
Q 381 3863 767 4166 
Q 1153 4469 1759 4469 
Q 2422 4469 2789 4161 
Q 3156 3853 3156 3303 
Q 3156 2881 2920 2617 
Q 2684 2353 2234 2259 
L 2234 2247 
Q 2728 2194 3003 1916 
Q 3278 1638 3278 1216 
z
" transform="scale(0.015625)"/>
       </defs>
       <use xlink:href="#Arimo-33"/>
       <use xlink:href="#Arimo-30" x="55.615234"/>
      </g>
     </g>
    </g>
    <g id="xtick_5">
     <g id="line2d_5">
      <path d="M 206.916513 173.687594 
L 206.916513 7.367594 
" clip-path="url(#pca2333d78d)" style="fill: none; stroke: #cccccc; stroke-width: 0.8; stroke-linecap: round"/>
     </g>
     <g id="text_5">
      <!-- 40 -->
      <g style="fill: #262626" transform="translate(202.022888 188.364844) scale(0.088 -0.088)">
       <defs>
        <path id="Arimo-34" d="M 2753 997 
L 2753 0 
L 2222 0 
L 2222 997 
L 147 997 
L 147 1434 
L 2163 4403 
L 2753 4403 
L 2753 1441 
L 3372 1441 
L 3372 997 
L 2753 997 
z
M 2222 1441 
L 2222 3769 
Q 2150 3631 2101 3543 
Q 2053 3456 2013 3397 
L 1003 1903 
Q 916 1775 666 1441 
L 2222 1441 
z
" transform="scale(0.015625)"/>
       </defs>
       <use xlink:href="#Arimo-34"/>
       <use xlink:href="#Arimo-30" x="55.615234"/>
      </g>
     </g>
    </g>
    <g id="xtick_6">
     <g id="line2d_6">
      <path d="M 245.15315 173.687594 
L 245.15315 7.367594 
" clip-path="url(#pca2333d78d)" style="fill: none; stroke: #cccccc; stroke-width: 0.8; stroke-linecap: round"/>
     </g>
     <g id="text_6">
      <!-- 50 -->
      <g style="fill: #262626" transform="translate(240.259525 188.364844) scale(0.088 -0.088)">
       <defs>
        <path id="Arimo-35" d="M 3291 1434 
Q 3291 738 2877 337 
Q 2463 -63 1728 -63 
Q 1113 -63 734 206 
Q 356 475 256 984 
L 825 1050 
Q 1003 397 1741 397 
Q 2194 397 2450 670 
Q 2706 944 2706 1422 
Q 2706 1838 2448 2094 
Q 2191 2350 1753 2350 
Q 1525 2350 1328 2278 
Q 1131 2206 934 2034 
L 384 2034 
L 531 4403 
L 3034 4403 
L 3034 3925 
L 1044 3925 
L 959 2528 
Q 1325 2809 1869 2809 
Q 2519 2809 2905 2428 
Q 3291 2047 3291 1434 
z
" transform="scale(0.015625)"/>
       </defs>
       <use xlink:href="#Arimo-35"/>
       <use xlink:href="#Arimo-30" x="55.615234"/>
      </g>
     </g>
    </g>
    <g id="xtick_7">
     <g id="line2d_7">
      <path d="M 283.389788 173.687594 
L 283.389788 7.367594 
" clip-path="url(#pca2333d78d)" style="fill: none; stroke: #cccccc; stroke-width: 0.8; stroke-linecap: round"/>
     </g>
     <g id="text_7">
      <!-- 60 -->
      <g style="fill: #262626" transform="translate(278.496163 188.364844) scale(0.088 -0.088)">
       <defs>
        <path id="Arimo-36" d="M 3278 1441 
Q 3278 744 2900 340 
Q 2522 -63 1856 -63 
Q 1113 -63 719 490 
Q 325 1044 325 2100 
Q 325 3244 734 3856 
Q 1144 4469 1900 4469 
Q 2897 4469 3156 3572 
L 2619 3475 
Q 2453 4013 1894 4013 
Q 1413 4013 1148 3564 
Q 884 3116 884 2266 
Q 1038 2550 1316 2698 
Q 1594 2847 1953 2847 
Q 2563 2847 2920 2465 
Q 3278 2084 3278 1441 
z
M 2706 1416 
Q 2706 1894 2472 2153 
Q 2238 2413 1819 2413 
Q 1425 2413 1183 2183 
Q 941 1953 941 1550 
Q 941 1041 1192 716 
Q 1444 391 1838 391 
Q 2244 391 2475 664 
Q 2706 938 2706 1416 
z
" transform="scale(0.015625)"/>
       </defs>
       <use xlink:href="#Arimo-36"/>
       <use xlink:href="#Arimo-30" x="55.615234"/>
      </g>
     </g>
    </g>
    <g id="text_8">
     <!-- Fire-related incidents near complaint (30 days, 500 m) -->
     <g style="fill: #262626" transform="translate(53.701875 201.147844) scale(0.096 -0.096)">
      <defs>
       <path id="Arimo-46" d="M 1122 3916 
L 1122 2278 
L 3578 2278 
L 3578 1784 
L 1122 1784 
L 1122 0 
L 525 0 
L 525 4403 
L 3653 4403 
L 3653 3916 
L 1122 3916 
z
" transform="scale(0.015625)"/>
       <path id="Arimo-69" d="M 428 0 
L 428 3381 
L 991 3381 
L 991 0 
L 428 0 
z
M 428 4100 
L 428 4638 
L 991 4638 
L 991 4100 
L 428 4100 
z
" transform="scale(0.015625)"/>
       <path id="Arimo-72" d="M 444 0 
L 444 2594 
Q 444 2950 425 3381 
L 956 3381 
Q 981 2806 981 2691 
L 994 2691 
Q 1128 3125 1303 3284 
Q 1478 3444 1797 3444 
Q 1909 3444 2025 3413 
L 2025 2897 
Q 1913 2928 1725 2928 
Q 1375 2928 1190 2626 
Q 1006 2325 1006 1763 
L 1006 0 
L 444 0 
z
" transform="scale(0.015625)"/>
       <path id="Arimo-65" d="M 863 1572 
Q 863 991 1103 675 
Q 1344 359 1806 359 
Q 2172 359 2392 506 
Q 2613 653 2691 878 
L 3184 738 
Q 2881 -63 1806 -63 
Q 1056 -63 664 384 
Q 272 831 272 1713 
Q 272 2550 664 2997 
Q 1056 3444 1784 3444 
Q 3275 3444 3275 1647 
L 3275 1572 
L 863 1572 
z
M 2694 2003 
Q 2647 2538 2422 2783 
Q 2197 3028 1775 3028 
Q 1366 3028 1127 2754 
Q 888 2481 869 2003 
L 2694 2003 
z
" transform="scale(0.015625)"/>
       <path id="Arimo-2d" d="M 284 1450 
L 284 1950 
L 1847 1950 
L 1847 1450 
L 284 1450 
z
" transform="scale(0.015625)"/>
       <path id="Arimo-6c" d="M 431 0 
L 431 4638 
L 994 4638 
L 994 0 
L 431 0 
z
" transform="scale(0.015625)"/>
       <path id="Arimo-61" d="M 1294 -63 
Q 784 -63 528 206 
Q 272 475 272 944 
Q 272 1469 617 1750 
Q 963 2031 1731 2050 
L 2491 2063 
L 2491 2247 
Q 2491 2659 2316 2837 
Q 2141 3016 1766 3016 
Q 1388 3016 1216 2887 
Q 1044 2759 1009 2478 
L 422 2531 
Q 566 3444 1778 3444 
Q 2416 3444 2737 3151 
Q 3059 2859 3059 2306 
L 3059 850 
Q 3059 600 3125 473 
Q 3191 347 3375 347 
Q 3456 347 3559 369 
L 3559 19 
Q 3347 -31 3125 -31 
Q 2813 -31 2670 133 
Q 2528 297 2509 647 
L 2491 647 
Q 2275 259 1989 98 
Q 1703 -63 1294 -63 
z
M 1422 359 
Q 1731 359 1972 500 
Q 2213 641 2352 886 
Q 2491 1131 2491 1391 
L 2491 1669 
L 1875 1656 
Q 1478 1650 1273 1575 
Q 1069 1500 959 1344 
Q 850 1188 850 934 
Q 850 659 998 509 
Q 1147 359 1422 359 
z
" transform="scale(0.015625)"/>
       <path id="Arimo-74" d="M 1731 25 
Q 1453 -50 1163 -50 
Q 488 -50 488 716 
L 488 2972 
L 97 2972 
L 97 3381 
L 509 3381 
L 675 4138 
L 1050 4138 
L 1050 3381 
L 1675 3381 
L 1675 2972 
L 1050 2972 
L 1050 838 
Q 1050 594 1129 495 
Q 1209 397 1406 397 
Q 1519 397 1731 441 
L 1731 25 
z
" transform="scale(0.015625)"/>
       <path id="Arimo-64" d="M 2566 544 
Q 2409 219 2151 78 
Q 1894 -63 1513 -63 
Q 872 -63 570 368 
Q 269 800 269 1675 
Q 269 3444 1513 3444 
Q 1897 3444 2153 3303 
Q 2409 3163 2566 2856 
L 2572 2856 
L 2566 3234 
L 2566 4638 
L 3128 4638 
L 3128 697 
Q 3128 169 3147 0 
L 2609 0 
Q 2600 50 2589 231 
Q 2578 413 2578 544 
L 2566 544 
z
M 859 1694 
Q 859 984 1046 678 
Q 1234 372 1656 372 
Q 2134 372 2350 703 
Q 2566 1034 2566 1731 
Q 2566 2403 2350 2715 
Q 2134 3028 1663 3028 
Q 1238 3028 1048 2714 
Q 859 2400 859 1694 
z
" transform="scale(0.015625)"/>
       <path id="Arimo-20" transform="scale(0.015625)"/>
       <path id="Arimo-6e" d="M 2578 0 
L 2578 2144 
Q 2578 2478 2512 2662 
Q 2447 2847 2303 2928 
Q 2159 3009 1881 3009 
Q 1475 3009 1240 2731 
Q 1006 2453 1006 1959 
L 1006 0 
L 444 0 
L 444 2659 
Q 444 3250 425 3381 
L 956 3381 
Q 959 3366 962 3297 
Q 966 3228 970 3139 
Q 975 3050 981 2803 
L 991 2803 
Q 1184 3153 1439 3298 
Q 1694 3444 2072 3444 
Q 2628 3444 2886 3167 
Q 3144 2891 3144 2253 
L 3144 0 
L 2578 0 
z
" transform="scale(0.015625)"/>
       <path id="Arimo-63" d="M 859 1706 
Q 859 1031 1071 706 
Q 1284 381 1713 381 
Q 2013 381 2214 543 
Q 2416 706 2463 1044 
L 3031 1006 
Q 2966 519 2616 228 
Q 2266 -63 1728 -63 
Q 1019 -63 645 385 
Q 272 834 272 1694 
Q 272 2547 647 2995 
Q 1022 3444 1722 3444 
Q 2241 3444 2583 3175 
Q 2925 2906 3013 2434 
L 2434 2391 
Q 2391 2672 2212 2837 
Q 2034 3003 1706 3003 
Q 1259 3003 1059 2706 
Q 859 2409 859 1706 
z
" transform="scale(0.015625)"/>
       <path id="Arimo-73" d="M 2969 934 
Q 2969 456 2608 196 
Q 2247 -63 1597 -63 
Q 966 -63 623 145 
Q 281 353 178 794 
L 675 891 
Q 747 619 972 492 
Q 1197 366 1597 366 
Q 2025 366 2223 497 
Q 2422 628 2422 891 
Q 2422 1091 2284 1216 
Q 2147 1341 1841 1422 
L 1438 1528 
Q 953 1653 748 1773 
Q 544 1894 428 2066 
Q 313 2238 313 2488 
Q 313 2950 642 3192 
Q 972 3434 1603 3434 
Q 2163 3434 2492 3237 
Q 2822 3041 2909 2606 
L 2403 2544 
Q 2356 2769 2151 2889 
Q 1947 3009 1603 3009 
Q 1222 3009 1040 2893 
Q 859 2778 859 2544 
Q 859 2400 934 2306 
Q 1009 2213 1156 2147 
Q 1303 2081 1775 1966 
Q 2222 1853 2419 1758 
Q 2616 1663 2730 1547 
Q 2844 1431 2906 1279 
Q 2969 1128 2969 934 
z
" transform="scale(0.015625)"/>
       <path id="Arimo-6f" d="M 3291 1694 
Q 3291 806 2900 371 
Q 2509 -63 1766 -63 
Q 1025 -63 647 389 
Q 269 841 269 1694 
Q 269 3444 1784 3444 
Q 2559 3444 2925 3017 
Q 3291 2591 3291 1694 
z
M 2700 1694 
Q 2700 2394 2492 2711 
Q 2284 3028 1794 3028 
Q 1300 3028 1079 2704 
Q 859 2381 859 1694 
Q 859 1025 1076 689 
Q 1294 353 1759 353 
Q 2266 353 2483 678 
Q 2700 1003 2700 1694 
z
" transform="scale(0.015625)"/>
       <path id="Arimo-6d" d="M 2400 0 
L 2400 2144 
Q 2400 2634 2265 2821 
Q 2131 3009 1781 3009 
Q 1422 3009 1212 2734 
Q 1003 2459 1003 1959 
L 1003 0 
L 444 0 
L 444 2659 
Q 444 3250 425 3381 
L 956 3381 
Q 959 3366 962 3297 
Q 966 3228 970 3139 
Q 975 3050 981 2803 
L 991 2803 
Q 1172 3163 1406 3303 
Q 1641 3444 1978 3444 
Q 2363 3444 2586 3291 
Q 2809 3138 2897 2803 
L 2906 2803 
Q 3081 3144 3329 3294 
Q 3578 3444 3931 3444 
Q 4444 3444 4676 3166 
Q 4909 2888 4909 2253 
L 4909 0 
L 4353 0 
L 4353 2144 
Q 4353 2634 4218 2821 
Q 4084 3009 3734 3009 
Q 3366 3009 3161 2736 
Q 2956 2463 2956 1959 
L 2956 0 
L 2400 0 
z
" transform="scale(0.015625)"/>
       <path id="Arimo-70" d="M 3291 1706 
Q 3291 -63 2047 -63 
Q 1266 -63 997 525 
L 981 525 
Q 994 500 994 -6 
L 994 -1328 
L 431 -1328 
L 431 2691 
Q 431 3213 413 3381 
L 956 3381 
Q 959 3369 965 3292 
Q 972 3216 980 3056 
Q 988 2897 988 2838 
L 1000 2838 
Q 1150 3150 1397 3295 
Q 1644 3441 2047 3441 
Q 2672 3441 2981 3022 
Q 3291 2603 3291 1706 
z
M 2700 1694 
Q 2700 2400 2509 2703 
Q 2319 3006 1903 3006 
Q 1569 3006 1380 2865 
Q 1191 2725 1092 2426 
Q 994 2128 994 1650 
Q 994 984 1206 668 
Q 1419 353 1897 353 
Q 2316 353 2508 661 
Q 2700 969 2700 1694 
z
" transform="scale(0.015625)"/>
       <path id="Arimo-28" d="M 397 1663 
Q 397 2566 680 3284 
Q 963 4003 1550 4638 
L 2094 4638 
Q 1509 3988 1236 3256 
Q 963 2525 963 1656 
Q 963 791 1233 62 
Q 1503 -666 2094 -1325 
L 1550 -1325 
Q 959 -688 678 32 
Q 397 753 397 1650 
L 397 1663 
z
" transform="scale(0.015625)"/>
       <path id="Arimo-79" d="M 597 -1328 
Q 366 -1328 209 -1294 
L 209 -872 
Q 328 -891 472 -891 
Q 997 -891 1303 -119 
L 1356 16 
L 16 3381 
L 616 3381 
L 1328 1513 
Q 1344 1469 1366 1408 
Q 1388 1347 1506 1000 
Q 1625 653 1634 613 
L 1853 1228 
L 2594 3381 
L 3188 3381 
L 1888 0 
Q 1678 -541 1497 -805 
Q 1316 -1069 1095 -1198 
Q 875 -1328 597 -1328 
z
" transform="scale(0.015625)"/>
       <path id="Arimo-2c" d="M 1203 684 
L 1203 159 
Q 1203 -172 1143 -394 
Q 1084 -616 959 -819 
L 575 -819 
Q 869 -394 869 0 
L 594 0 
L 594 684 
L 1203 684 
z
" transform="scale(0.015625)"/>
       <path id="Arimo-29" d="M 1734 1650 
Q 1734 747 1451 28 
Q 1169 -691 581 -1325 
L 38 -1325 
Q 625 -669 897 57 
Q 1169 784 1169 1656 
Q 1169 2528 895 3256 
Q 622 3984 38 4638 
L 581 4638 
Q 1172 4000 1453 3279 
Q 1734 2559 1734 1663 
L 1734 1650 
z
" transform="scale(0.015625)"/>
      </defs>
      <use xlink:href="#Arimo-46"/>
      <use xlink:href="#Arimo-69" x="61.083984"/>
      <use xlink:href="#Arimo-72" x="83.300781"/>
      <use xlink:href="#Arimo-65" x="116.601562"/>
      <use xlink:href="#Arimo-2d" x="172.216797"/>
      <use xlink:href="#Arimo-72" x="205.517578"/>
      <use xlink:href="#Arimo-65" x="238.818359"/>
      <use xlink:href="#Arimo-6c" x="294.433594"/>
      <use xlink:href="#Arimo-61" x="316.650391"/>
      <use xlink:href="#Arimo-74" x="372.265625"/>
      <use xlink:href="#Arimo-65" x="400.048828"/>
      <use xlink:href="#Arimo-64" x="455.664062"/>
      <use xlink:href="#Arimo-20" x="511.279297"/>
      <use xlink:href="#Arimo-69" x="539.0625"/>
      <use xlink:href="#Arimo-6e" x="561.279297"/>
      <use xlink:href="#Arimo-63" x="616.894531"/>
      <use xlink:href="#Arimo-69" x="666.894531"/>
      <use xlink:href="#Arimo-64" x="689.111328"/>
      <use xlink:href="#Arimo-65" x="744.726562"/>
      <use xlink:href="#Arimo-6e" x="800.341797"/>
      <use xlink:href="#Arimo-74" x="855.957031"/>
      <use xlink:href="#Arimo-73" x="883.740234"/>
      <use xlink:href="#Arimo-20" x="933.740234"/>
      <use xlink:href="#Arimo-6e" x="961.523438"/>
      <use xlink:href="#Arimo-65" x="1017.138672"/>
      <use xlink:href="#Arimo-61" x="1072.753906"/>
      <use xlink:href="#Arimo-72" x="1128.369141"/>
      <use xlink:href="#Arimo-20" x="1161.669922"/>
      <use xlink:href="#Arimo-63" x="1189.453125"/>
      <use xlink:href="#Arimo-6f" x="1239.453125"/>
      <use xlink:href="#Arimo-6d" x="1295.068359"/>
      <use xlink:href="#Arimo-70" x="1378.369141"/>
      <use xlink:href="#Arimo-6c" x="1433.984375"/>
      <use xlink:href="#Arimo-61" x="1456.201172"/>
      <use xlink:href="#Arimo-69" x="1511.816406"/>
      <use xlink:href="#Arimo-6e" x="1534.033203"/>
      <use xlink:href="#Arimo-74" x="1589.648438"/>
      <use xlink:href="#Arimo-20" x="1617.431641"/>
      <use xlink:href="#Arimo-28" x="1645.214844"/>
      <use xlink:href="#Arimo-33" x="1678.515625"/>
      <use xlink:href="#Arimo-30" x="1734.130859"/>
      <use xlink:href="#Arimo-20" x="1789.746094"/>
      <use xlink:href="#Arimo-64" x="1817.529297"/>
      <use xlink:href="#Arimo-61" x="1873.144531"/>
      <use xlink:href="#Arimo-79" x="1928.759766"/>
      <use xlink:href="#Arimo-73" x="1978.759766"/>
      <use xlink:href="#Arimo-2c" x="2028.759766"/>
      <use xlink:href="#Arimo-20" x="2056.542969"/>
      <use xlink:href="#Arimo-35" x="2084.326172"/>
      <use xlink:href="#Arimo-30" x="2139.941406"/>
      <use xlink:href="#Arimo-30" x="2195.556641"/>
      <use xlink:href="#Arimo-20" x="2251.171875"/>
      <use xlink:href="#Arimo-6d" x="2278.955078"/>
      <use xlink:href="#Arimo-29" x="2362.255859"/>
     </g>
    </g>
   </g>
   <g id="matplotlib.axis_2">
    <g id="ytick_1">
     <g id="line2d_8">
      <path d="M 43.129875 173.687594 
L 294.229875 173.687594 
" clip-path="url(#pca2333d78d)" style="fill: none; stroke: #cccccc; stroke-width: 0.8; stroke-linecap: round"/>
     </g>
     <g id="text_9">
      <!-- 0 -->
      <g style="fill: #262626" transform="translate(29.93625 176.876219) scale(0.088 -0.088)">
       <use xlink:href="#Arimo-30"/>
      </g>
     </g>
    </g>
    <g id="ytick_2">
     <g id="line2d_9">
      <path d="M 43.129875 150.35917 
L 294.229875 150.35917 
" clip-path="url(#pca2333d78d)" style="fill: none; stroke: #cccccc; stroke-width: 0.8; stroke-linecap: round"/>
     </g>
     <g id="text_10">
      <!-- 100 -->
      <g style="fill: #262626" transform="translate(20.149 153.547795) scale(0.088 -0.088)">
       <use xlink:href="#Arimo-31"/>
       <use xlink:href="#Arimo-30" x="55.615234"/>
       <use xlink:href="#Arimo-30" x="111.230469"/>
      </g>
     </g>
    </g>
    <g id="ytick_3">
     <g id="line2d_10">
      <path d="M 43.129875 127.030746 
L 294.229875 127.030746 
" clip-path="url(#pca2333d78d)" style="fill: none; stroke: #cccccc; stroke-width: 0.8; stroke-linecap: round"/>
     </g>
     <g id="text_11">
      <!-- 200 -->
      <g style="fill: #262626" transform="translate(20.149 130.219371) scale(0.088 -0.088)">
       <use xlink:href="#Arimo-32"/>
       <use xlink:href="#Arimo-30" x="55.615234"/>
       <use xlink:href="#Arimo-30" x="111.230469"/>
      </g>
     </g>
    </g>
    <g id="ytick_4">
     <g id="line2d_11">
      <path d="M 43.129875 103.702322 
L 294.229875 103.702322 
" clip-path="url(#pca2333d78d)" style="fill: none; stroke: #cccccc; stroke-width: 0.8; stroke-linecap: round"/>
     </g>
     <g id="text_12">
      <!-- 300 -->
      <g style="fill: #262626" transform="translate(20.149 106.890947) scale(0.088 -0.088)">
       <use xlink:href="#Arimo-33"/>
       <use xlink:href="#Arimo-30" x="55.615234"/>
       <use xlink:href="#Arimo-30" x="111.230469"/>
      </g>
     </g>
    </g>
    <g id="ytick_5">
     <g id="line2d_12">
      <path d="M 43.129875 80.373897 
L 294.229875 80.373897 
" clip-path="url(#pca2333d78d)" style="fill: none; stroke: #cccccc; stroke-width: 0.8; stroke-linecap: round"/>
     </g>
     <g id="text_13">
      <!-- 400 -->
      <g style="fill: #262626" transform="translate(20.149 83.562522) scale(0.088 -0.088)">
       <use xlink:href="#Arimo-34"/>
       <use xlink:href="#Arimo-30" x="55.615234"/>
       <use xlink:href="#Arimo-30" x="111.230469"/>
      </g>
     </g>
    </g>
    <g id="ytick_6">
     <g id="line2d_13">
      <path d="M 43.129875 57.045473 
L 294.229875 57.045473 
" clip-path="url(#pca2333d78d)" style="fill: none; stroke: #cccccc; stroke-width: 0.8; stroke-linecap: round"/>
     </g>
     <g id="text_14">
      <!-- 500 -->
      <g style="fill: #262626" transform="translate(20.149 60.234098) scale(0.088 -0.088)">
       <use xlink:href="#Arimo-35"/>
       <use xlink:href="#Arimo-30" x="55.615234"/>
       <use xlink:href="#Arimo-30" x="111.230469"/>
      </g>
     </g>
    </g>
    <g id="ytick_7">
     <g id="line2d_14">
      <path d="M 43.129875 33.717049 
L 294.229875 33.717049 
" clip-path="url(#pca2333d78d)" style="fill: none; stroke: #cccccc; stroke-width: 0.8; stroke-linecap: round"/>
     </g>
     <g id="text_15">
      <!-- 600 -->
      <g style="fill: #262626" transform="translate(20.149 36.905674) scale(0.088 -0.088)">
       <use xlink:href="#Arimo-36"/>
       <use xlink:href="#Arimo-30" x="55.615234"/>
       <use xlink:href="#Arimo-30" x="111.230469"/>
      </g>
     </g>
    </g>
    <g id="ytick_8">
     <g id="line2d_15">
      <path d="M 43.129875 10.388625 
L 294.229875 10.388625 
" clip-path="url(#pca2333d78d)" style="fill: none; stroke: #cccccc; stroke-width: 0.8; stroke-linecap: round"/>
     </g>
     <g id="text_16">
      <!-- 700 -->
      <g style="fill: #262626" transform="translate(20.149 13.57725) scale(0.088 -0.088)">
       <defs>
        <path id="Arimo-37" d="M 3238 3947 
Q 2563 2916 2284 2331 
Q 2006 1747 1867 1178 
Q 1728 609 1728 0 
L 1141 0 
Q 1141 844 1498 1776 
Q 1856 2709 2694 3925 
L 328 3925 
L 328 4403 
L 3238 4403 
L 3238 3947 
z
" transform="scale(0.015625)"/>
       </defs>
       <use xlink:href="#Arimo-37"/>
       <use xlink:href="#Arimo-30" x="55.615234"/>
       <use xlink:href="#Arimo-30" x="111.230469"/>
      </g>
     </g>
    </g>
    <g id="text_17">
     <!-- Count -->
     <g style="fill: #262626" transform="translate(14.157 103.335344) rotate(-90) scale(0.096 -0.096)">
      <defs>
       <path id="Arimo-43" d="M 2475 3981 
Q 1744 3981 1337 3511 
Q 931 3041 931 2222 
Q 931 1413 1354 920 
Q 1778 428 2500 428 
Q 3425 428 3891 1344 
L 4378 1100 
Q 4106 531 3614 234 
Q 3122 -63 2472 -63 
Q 1806 -63 1320 214 
Q 834 491 579 1005 
Q 325 1519 325 2222 
Q 325 3275 894 3872 
Q 1463 4469 2469 4469 
Q 3172 4469 3644 4194 
Q 4116 3919 4338 3378 
L 3772 3191 
Q 3619 3575 3280 3778 
Q 2941 3981 2475 3981 
z
" transform="scale(0.015625)"/>
       <path id="Arimo-75" d="M 981 3381 
L 981 1238 
Q 981 903 1047 718 
Q 1113 534 1256 453 
Q 1400 372 1678 372 
Q 2084 372 2318 650 
Q 2553 928 2553 1422 
L 2553 3381 
L 3116 3381 
L 3116 722 
Q 3116 131 3134 0 
L 2603 0 
Q 2600 16 2597 84 
Q 2594 153 2589 242 
Q 2584 331 2578 578 
L 2569 578 
Q 2375 228 2120 82 
Q 1866 -63 1488 -63 
Q 931 -63 673 214 
Q 416 491 416 1128 
L 416 3381 
L 981 3381 
z
" transform="scale(0.015625)"/>
      </defs>
      <use xlink:href="#Arimo-43"/>
      <use xlink:href="#Arimo-6f" x="72.216797"/>
      <use xlink:href="#Arimo-75" x="127.832031"/>
      <use xlink:href="#Arimo-6e" x="183.447266"/>
      <use xlink:href="#Arimo-74" x="239.0625"/>
     </g>
    </g>
   </g>
   <g id="patch_3">
    <path d="M 59.705457 173.687594 
L 64.867404 173.687594 
L 64.867404 23.685827 
L 59.705457 23.685827 
z
" clip-path="url(#pca2333d78d)" style="fill: #dd8452; fill-opacity: 0.75; stroke: #ffffff; stroke-width: 0.516195; stroke-linejoin: miter"/>
   </g>
   <g id="patch_4">
    <path d="M 71.176449 173.687594 
L 76.338395 173.687594 
L 76.338395 73.841939 
L 71.176449 73.841939 
z
" clip-path="url(#pca2333d78d)" style="fill: #dd8452; fill-opacity: 0.75; stroke: #ffffff; stroke-width: 0.516195; stroke-linejoin: miter"/>
   </g>
   <g id="patch_5">
    <path d="M 82.64744 173.687594 
L 87.809386 173.687594 
L 87.809386 106.268448 
L 82.64744 106.268448 
z
" clip-path="url(#pca2333d78d)" style="fill: #dd8452; fill-opacity: 0.75; stroke: #ffffff; stroke-width: 0.516195; stroke-linejoin: miter"/>
   </g>
   <g id="patch_6">
    <path d="M 94.118431 173.687594 
L 99.280378 173.687594 
L 99.280378 133.795989 
L 94.118431 133.795989 
z
" clip-path="url(#pca2333d78d)" style="fill: #dd8452; fill-opacity: 0.75; stroke: #ffffff; stroke-width: 0.516195; stroke-linejoin: miter"/>
   </g>
   <g id="patch_7">
    <path d="M 105.589423 173.687594 
L 110.751369 173.687594 
L 110.751369 146.859906 
L 105.589423 146.859906 
z
" clip-path="url(#pca2333d78d)" style="fill: #dd8452; fill-opacity: 0.75; stroke: #ffffff; stroke-width: 0.516195; stroke-linejoin: miter"/>
   </g>
   <g id="patch_8">
    <path d="M 117.060414 173.687594 
L 122.22236 173.687594 
L 122.22236 155.024855 
L 117.060414 155.024855 
z
" clip-path="url(#pca2333d78d)" style="fill: #dd8452; fill-opacity: 0.75; stroke: #ffffff; stroke-width: 0.516195; stroke-linejoin: miter"/>
   </g>
   <g id="patch_9">
    <path d="M 128.531405 173.687594 
L 133.693351 173.687594 
L 133.693351 161.323529 
L 128.531405 161.323529 
z
" clip-path="url(#pca2333d78d)" style="fill: #dd8452; fill-opacity: 0.75; stroke: #ffffff; stroke-width: 0.516195; stroke-linejoin: miter"/>
   </g>
   <g id="patch_10">
    <path d="M 140.002397 173.687594 
L 145.164343 173.687594 
L 145.164343 164.356224 
L 140.002397 164.356224 
z
" clip-path="url(#pca2333d78d)" style="fill: #dd8452; fill-opacity: 0.75; stroke: #ffffff; stroke-width: 0.516195; stroke-linejoin: miter"/>
   </g>
   <g id="patch_11">
    <path d="M 151.473388 173.687594 
L 156.635334 173.687594 
L 156.635334 164.12294 
L 151.473388 164.12294 
z
" clip-path="url(#pca2333d78d)" style="fill: #dd8452; fill-opacity: 0.75; stroke: #ffffff; stroke-width: 0.516195; stroke-linejoin: miter"/>
   </g>
   <g id="patch_12">
    <path d="M 162.944379 173.687594 
L 168.106325 173.687594 
L 168.106325 169.488478 
L 162.944379 169.488478 
z
" clip-path="url(#pca2333d78d)" style="fill: #dd8452; fill-opacity: 0.75; stroke: #ffffff; stroke-width: 0.516195; stroke-linejoin: miter"/>
   </g>
   <g id="patch_13">
    <path d="M 174.415371 173.687594 
L 179.577317 173.687594 
L 179.577317 167.622204 
L 174.415371 167.622204 
z
" clip-path="url(#pca2333d78d)" style="fill: #dd8452; fill-opacity: 0.75; stroke: #ffffff; stroke-width: 0.516195; stroke-linejoin: miter"/>
   </g>
   <g id="patch_14">
    <path d="M 185.886362 173.687594 
L 191.048308 173.687594 
L 191.048308 168.555341 
L 185.886362 168.555341 
z
" clip-path="url(#pca2333d78d)" style="fill: #dd8452; fill-opacity: 0.75; stroke: #ffffff; stroke-width: 0.516195; stroke-linejoin: miter"/>
   </g>
   <g id="patch_15">
    <path d="M 197.357353 173.687594 
L 202.519299 173.687594 
L 202.519299 167.622204 
L 197.357353 167.622204 
z
" clip-path="url(#pca2333d78d)" style="fill: #dd8452; fill-opacity: 0.75; stroke: #ffffff; stroke-width: 0.516195; stroke-linejoin: miter"/>
   </g>
   <g id="patch_16">
    <path d="M 208.828345 173.687594 
L 213.990291 173.687594 
L 213.990291 170.654899 
L 208.828345 170.654899 
z
" clip-path="url(#pca2333d78d)" style="fill: #dd8452; fill-opacity: 0.75; stroke: #ffffff; stroke-width: 0.516195; stroke-linejoin: miter"/>
   </g>
   <g id="patch_17">
    <path d="M 220.299336 173.687594 
L 225.461282 173.687594 
L 225.461282 171.121467 
L 220.299336 171.121467 
z
" clip-path="url(#pca2333d78d)" style="fill: #dd8452; fill-opacity: 0.75; stroke: #ffffff; stroke-width: 0.516195; stroke-linejoin: miter"/>
   </g>
   <g id="patch_18">
    <path d="M 231.770327 173.687594 
L 236.932273 173.687594 
L 236.932273 171.121467 
L 231.770327 171.121467 
z
" clip-path="url(#pca2333d78d)" style="fill: #dd8452; fill-opacity: 0.75; stroke: #ffffff; stroke-width: 0.516195; stroke-linejoin: miter"/>
   </g>
   <g id="patch_19">
    <path d="M 243.241319 173.687594 
L 248.403265 173.687594 
L 248.403265 172.754457 
L 243.241319 172.754457 
z
" clip-path="url(#pca2333d78d)" style="fill: #dd8452; fill-opacity: 0.75; stroke: #ffffff; stroke-width: 0.516195; stroke-linejoin: miter"/>
   </g>
   <g id="patch_20">
    <path d="M 254.71231 173.687594 
L 259.874256 173.687594 
L 259.874256 172.754457 
L 254.71231 172.754457 
z
" clip-path="url(#pca2333d78d)" style="fill: #dd8452; fill-opacity: 0.75; stroke: #ffffff; stroke-width: 0.516195; stroke-linejoin: miter"/>
   </g>
   <g id="patch_21">
    <path d="M 266.183301 173.687594 
L 271.345247 173.687594 
L 271.345247 173.221026 
L 266.183301 173.221026 
z
" clip-path="url(#pca2333d78d)" style="fill: #dd8452; fill-opacity: 0.75; stroke: #ffffff; stroke-width: 0.516195; stroke-linejoin: miter"/>
   </g>
   <g id="patch_22">
    <path d="M 277.654293 173.687594 
L 282.816239 173.687594 
L 282.816239 172.987741 
L 277.654293 172.987741 
z
" clip-path="url(#pca2333d78d)" style="fill: #dd8452; fill-opacity: 0.75; stroke: #ffffff; stroke-width: 0.516195; stroke-linejoin: miter"/>
   </g>
   <g id="patch_23">
    <path d="M 54.543511 173.687594 
L 59.705457 173.687594 
L 59.705457 15.287594 
L 54.543511 15.287594 
z
" clip-path="url(#pca2333d78d)" style="fill: #4c72b0; fill-opacity: 0.75; stroke: #ffffff; stroke-width: 0.516195; stroke-linejoin: miter"/>
   </g>
   <g id="patch_24">
    <path d="M 66.014503 173.687594 
L 71.176449 173.687594 
L 71.176449 72.908802 
L 66.014503 72.908802 
z
" clip-path="url(#pca2333d78d)" style="fill: #4c72b0; fill-opacity: 0.75; stroke: #ffffff; stroke-width: 0.516195; stroke-linejoin: miter"/>
   </g>
   <g id="patch_25">
    <path d="M 77.485494 173.687594 
L 82.64744 173.687594 
L 82.64744 110.700849 
L 77.485494 110.700849 
z
" clip-path="url(#pca2333d78d)" style="fill: #4c72b0; fill-opacity: 0.75; stroke: #ffffff; stroke-width: 0.516195; stroke-linejoin: miter"/>
   </g>
   <g id="patch_26">
    <path d="M 88.956485 173.687594 
L 94.118431 173.687594 
L 94.118431 130.996578 
L 88.956485 130.996578 
z
" clip-path="url(#pca2333d78d)" style="fill: #4c72b0; fill-opacity: 0.75; stroke: #ffffff; stroke-width: 0.516195; stroke-linejoin: miter"/>
   </g>
   <g id="patch_27">
    <path d="M 100.427477 173.687594 
L 105.589423 173.687594 
L 105.589423 148.026328 
L 100.427477 148.026328 
z
" clip-path="url(#pca2333d78d)" style="fill: #4c72b0; fill-opacity: 0.75; stroke: #ffffff; stroke-width: 0.516195; stroke-linejoin: miter"/>
   </g>
   <g id="patch_28">
    <path d="M 111.898468 173.687594 
L 117.060414 173.687594 
L 117.060414 156.657844 
L 111.898468 156.657844 
z
" clip-path="url(#pca2333d78d)" style="fill: #4c72b0; fill-opacity: 0.75; stroke: #ffffff; stroke-width: 0.516195; stroke-linejoin: miter"/>
   </g>
   <g id="patch_29">
    <path d="M 123.369459 173.687594 
L 128.531405 173.687594 
L 128.531405 157.124413 
L 123.369459 157.124413 
z
" clip-path="url(#pca2333d78d)" style="fill: #4c72b0; fill-opacity: 0.75; stroke: #ffffff; stroke-width: 0.516195; stroke-linejoin: miter"/>
   </g>
   <g id="patch_30">
    <path d="M 134.840451 173.687594 
L 140.002397 173.687594 
L 140.002397 164.822793 
L 134.840451 164.822793 
z
" clip-path="url(#pca2333d78d)" style="fill: #4c72b0; fill-opacity: 0.75; stroke: #ffffff; stroke-width: 0.516195; stroke-linejoin: miter"/>
   </g>
   <g id="patch_31">
    <path d="M 146.311442 173.687594 
L 151.473388 173.687594 
L 151.473388 167.622204 
L 146.311442 167.622204 
z
" clip-path="url(#pca2333d78d)" style="fill: #4c72b0; fill-opacity: 0.75; stroke: #ffffff; stroke-width: 0.516195; stroke-linejoin: miter"/>
   </g>
   <g id="patch_32">
    <path d="M 157.782433 173.687594 
L 162.944379 173.687594 
L 162.944379 168.088772 
L 157.782433 168.088772 
z
" clip-path="url(#pca2333d78d)" style="fill: #4c72b0; fill-opacity: 0.75; stroke: #ffffff; stroke-width: 0.516195; stroke-linejoin: miter"/>
   </g>
   <g id="patch_33">
    <path d="M 169.253425 173.687594 
L 174.415371 173.687594 
L 174.415371 168.555341 
L 169.253425 168.555341 
z
" clip-path="url(#pca2333d78d)" style="fill: #4c72b0; fill-opacity: 0.75; stroke: #ffffff; stroke-width: 0.516195; stroke-linejoin: miter"/>
   </g>
   <g id="patch_34">
    <path d="M 180.724416 173.687594 
L 185.886362 173.687594 
L 185.886362 170.18833 
L 180.724416 170.18833 
z
" clip-path="url(#pca2333d78d)" style="fill: #4c72b0; fill-opacity: 0.75; stroke: #ffffff; stroke-width: 0.516195; stroke-linejoin: miter"/>
   </g>
   <g id="patch_35">
    <path d="M 192.195407 173.687594 
L 197.357353 173.687594 
L 197.357353 170.888183 
L 192.195407 170.888183 
z
" clip-path="url(#pca2333d78d)" style="fill: #4c72b0; fill-opacity: 0.75; stroke: #ffffff; stroke-width: 0.516195; stroke-linejoin: miter"/>
   </g>
   <g id="patch_36">
    <path d="M 203.666399 173.687594 
L 208.828345 173.687594 
L 208.828345 171.354752 
L 203.666399 171.354752 
z
" clip-path="url(#pca2333d78d)" style="fill: #4c72b0; fill-opacity: 0.75; stroke: #ffffff; stroke-width: 0.516195; stroke-linejoin: miter"/>
   </g>
   <g id="patch_37">
    <path d="M 215.13739 173.687594 
L 220.299336 173.687594 
L 220.299336 171.354752 
L 215.13739 171.354752 
z
" clip-path="url(#pca2333d78d)" style="fill: #4c72b0; fill-opacity: 0.75; stroke: #ffffff; stroke-width: 0.516195; stroke-linejoin: miter"/>
   </g>
   <g id="patch_38">
    <path d="M 226.608381 173.687594 
L 231.770327 173.687594 
L 231.770327 171.121467 
L 226.608381 171.121467 
z
" clip-path="url(#pca2333d78d)" style="fill: #4c72b0; fill-opacity: 0.75; stroke: #ffffff; stroke-width: 0.516195; stroke-linejoin: miter"/>
   </g>
   <g id="patch_39">
    <path d="M 238.079372 173.687594 
L 243.241319 173.687594 
L 243.241319 172.287889 
L 238.079372 172.287889 
z
" clip-path="url(#pca2333d78d)" style="fill: #4c72b0; fill-opacity: 0.75; stroke: #ffffff; stroke-width: 0.516195; stroke-linejoin: miter"/>
   </g>
   <g id="patch_40">
    <path d="M 249.550364 173.687594 
L 254.71231 173.687594 
L 254.71231 172.521173 
L 249.550364 172.521173 
z
" clip-path="url(#pca2333d78d)" style="fill: #4c72b0; fill-opacity: 0.75; stroke: #ffffff; stroke-width: 0.516195; stroke-linejoin: miter"/>
   </g>
   <g id="patch_41">
    <path d="M 261.021355 173.687594 
L 266.183301 173.687594 
L 266.183301 173.45431 
L 261.021355 173.45431 
z
" clip-path="url(#pca2333d78d)" style="fill: #4c72b0; fill-opacity: 0.75; stroke: #ffffff; stroke-width: 0.516195; stroke-linejoin: miter"/>
   </g>
   <g id="patch_42">
    <path d="M 272.492346 173.687594 
L 277.654293 173.687594 
L 277.654293 173.221026 
L 272.492346 173.221026 
z
" clip-path="url(#pca2333d78d)" style="fill: #4c72b0; fill-opacity: 0.75; stroke: #ffffff; stroke-width: 0.516195; stroke-linejoin: miter"/>
   </g>
   <g id="patch_43">
    <path d="M 43.129875 173.687594 
L 43.129875 7.367594 
" style="fill: none; stroke: #cccccc; stroke-linejoin: miter; stroke-linecap: square"/>
   </g>
   <g id="patch_44">
    <path d="M 294.229875 173.687594 
L 294.229875 7.367594 
" style="fill: none; stroke: #cccccc; stroke-linejoin: miter; stroke-linecap: square"/>
   </g>
   <g id="patch_45">
    <path d="M 43.129875 173.687594 
L 294.229875 173.687594 
" style="fill: none; stroke: #cccccc; stroke-linejoin: miter; stroke-linecap: square"/>
   </g>
   <g id="patch_46">
    <path d="M 43.129875 7.367594 
L 294.229875 7.367594 
" style="fill: none; stroke: #cccccc; stroke-linejoin: miter; stroke-linecap: square"/>
   </g>
   <g id="legend_1">
    <g id="patch_47">
     <path d="M 234.9605 39.614094 
L 288.069875 39.614094 
Q 289.829875 39.614094 289.829875 37.854094 
L 289.829875 13.527594 
Q 289.829875 11.767594 288.069875 11.767594 
L 234.9605 11.767594 
Q 233.2005 11.767594 233.2005 13.527594 
L 233.2005 37.854094 
Q 233.2005 39.614094 234.9605 39.614094 
z
" style="fill: #ffffff; opacity: 0.8; stroke: #cccccc; stroke-width: 0.8; stroke-linejoin: miter"/>
    </g>
    <g id="patch_48">
     <path d="M 236.7205 21.664844 
L 254.3205 21.664844 
L 254.3205 15.504844 
L 236.7205 15.504844 
z
" style="fill: #4c72b0; fill-opacity: 0.75; stroke: #ffffff; stroke-width: 0.8; stroke-linejoin: miter"/>
    </g>
    <g id="text_18">
     <!-- before -->
     <g style="fill: #262626" transform="translate(261.3605 21.664844) scale(0.088 -0.088)">
      <defs>
       <path id="Arimo-62" d="M 3291 1706 
Q 3291 -63 2047 -63 
Q 1663 -63 1408 76 
Q 1153 216 994 525 
L 988 525 
Q 988 428 975 229 
Q 963 31 956 0 
L 413 0 
Q 431 169 431 697 
L 431 4638 
L 994 4638 
L 994 3316 
Q 994 3113 981 2838 
L 994 2838 
Q 1150 3163 1408 3303 
Q 1666 3444 2047 3444 
Q 2688 3444 2989 3012 
Q 3291 2581 3291 1706 
z
M 2700 1688 
Q 2700 2397 2512 2703 
Q 2325 3009 1903 3009 
Q 1428 3009 1211 2684 
Q 994 2359 994 1653 
Q 994 988 1206 670 
Q 1419 353 1897 353 
Q 2322 353 2511 667 
Q 2700 981 2700 1688 
z
" transform="scale(0.015625)"/>
       <path id="Arimo-66" d="M 1128 2972 
L 1128 0 
L 566 0 
L 566 2972 
L 91 2972 
L 91 3381 
L 566 3381 
L 566 3763 
Q 566 4225 769 4428 
Q 972 4631 1391 4631 
Q 1625 4631 1788 4594 
L 1788 4166 
Q 1647 4191 1538 4191 
Q 1322 4191 1225 4081 
Q 1128 3972 1128 3684 
L 1128 3381 
L 1788 3381 
L 1788 2972 
L 1128 2972 
z
" transform="scale(0.015625)"/>
      </defs>
      <use xlink:href="#Arimo-62"/>
      <use xlink:href="#Arimo-65" x="55.615234"/>
      <use xlink:href="#Arimo-66" x="111.230469"/>
      <use xlink:href="#Arimo-6f" x="139.013672"/>
      <use xlink:href="#Arimo-72" x="194.628906"/>
      <use xlink:href="#Arimo-65" x="227.929688"/>
     </g>
    </g>
    <g id="patch_49">
     <path d="M 236.7205 34.268094 
L 254.3205 34.268094 
L 254.3205 28.108094 
L 236.7205 28.108094 
z
" style="fill: #dd8452; fill-opacity: 0.75; stroke: #ffffff; stroke-width: 0.8; stroke-linejoin: miter"/>
    </g>
    <g id="text_19">
     <!-- after -->
     <g style="fill: #262626" transform="translate(261.3605 34.268094) scale(0.088 -0.088)">
      <use xlink:href="#Arimo-61"/>
      <use xlink:href="#Arimo-66" x="55.615234"/>
      <use xlink:href="#Arimo-74" x="83.398438"/>
      <use xlink:href="#Arimo-65" x="111.181641"/>
      <use xlink:href="#Arimo-72" x="166.796875"/>
     </g>
    </g>
   </g>
  </g>
 </g>
 <defs>
  <clipPath id="pca2333d78d">
   <rect x="43.129875" y="7.367594" width="251.1" height="166.32"/>
  </clipPath>
 </defs>
</svg>
